#N canvas -76 -1080 1354 651 12;
#X obj -1 -8 cnv 15 1666 1333 empty empty empty 20 12 0 14 #b8b8b8
#404040 0;
#X msg 199 445 disconnect;
#X msg 128 464 connect 255.255.255.255 9000;
#X obj 18 485 netsend -u -b;
#X obj 1798 298 tgl 15 0 empty empty empty 17 7 0 10 #fcfcfc #000000
#000000 0 1;
#X floatatom 1833 272 5 0 0 0 - - - 0;
#X obj 1773 190 loadbang;
#X obj 128 426 delay 4444;
#X obj 128 445 t b;
#X obj 1846 255 hsl 64 15 222 10 0 0 empty empty data_clock_ms -2 -8
0 10 #fcfcc4 #000000 #000000 0 1;
#X obj 36 224 hsl 64 15 0 1 0 0 empty empty empty -2 -8 0 10 #fcfcfc
#000000 #000000 0 1;
#X text 338 7 http://servando.teks.no;
#X msg 1893 297 \; pd dsp 1;
#X msg 1851 291 20;
#X obj 21 246 oscformat ch1;
#X obj 33 202 spigot 1, f 9;
#X obj 111 272 oscformat ch2;
#X obj 196 247 oscformat ch3;
#X obj 281 276 oscformat ch4;
#X obj 422 245 oscformat ch5;
#X obj 31 316 * 127;
#X obj 31 337 int;
#X obj 30 360 ctlout 1;
#X obj 119 317 * 127;
#X obj 119 338 int;
#X obj 222 318 * 127;
#X obj 222 339 int;
#X obj 310 320 * 127;
#X obj 310 341 int, f 5;
#X obj 426 320 * 127;
#X obj 426 341 int;
#X obj 118 361 ctlout 2;
#X obj 221 362 ctlout 3;
#X obj 309 364 ctlout 4;
#X obj 425 364 ctlout 5;
#N canvas -110 -1018 1920 950 selektr 0;
#X obj 101 101 cnv 15 84 59 empty empty empty 20 12 0 14 #606060 #404040
0;
#X obj 114 42 loadbang;
#X msg 114 64 1;
#X obj 109 133 nbx 5 14 0 24 0 0 empty empty chann 0 -8 0 10 #000000
#00ff04 #00ff04 0 256;
#X obj 174 536 outlet~;
#X obj 42 287 *~, f 5;
#X obj 60 243 sel 1;
#X msg 58 267 1;
#X msg 91 267 0;
#X obj 102 291 *~, f 5;
#X msg 141 273 1;
#X msg 174 273 0;
#X obj 200 295 *~, f 5;
#X msg 239 277 1;
#X msg 272 277 0;
#X obj 295 300 *~, f 5;
#X msg 334 282 1;
#X msg 367 282 0;
#X obj 398 301 *~, f 5;
#X msg 437 283 1;
#X msg 470 283 0;
#X obj 503 308 *~, f 5;
#X msg 532 288 1;
#X msg 565 288 0;
#X obj 143 249 sel 2;
#X obj 241 253 sel 3;
#X obj 336 258 sel 4;
#X obj 439 259 sel 5;
#X obj 534 264 sel 6;
#X obj 502 127 adc~ 1 2 3 4 5 6 7 8 9 10 11 12, f 57;
#X obj 608 311 *~, f 5;
#X msg 619 289 1;
#X msg 652 289 0;
#X obj 703 316 *~, f 5;
#X msg 730 302 1;
#X msg 763 302 0;
#X obj 801 320 *~, f 5;
#X msg 840 302 1;
#X msg 873 302 0;
#X obj 896 325 *~, f 5;
#X msg 935 307 1;
#X msg 968 307 0;
#X obj 999 326 *~, f 5;
#X msg 1038 308 1;
#X msg 1071 308 0;
#X obj 1104 333 *~, f 5;
#X msg 1133 313 1;
#X msg 1166 313 0;
#X obj 621 265 sel 7;
#X obj 738 268 sel 8;
#X obj 837 270 sel 9;
#X obj 937 272 sel 10;
#X obj 1049 270 sel 11;
#X obj 1133 277 sel 12;
#X obj 642 414 nbx 5 14 -1e+37 1e+37 0 0 empty empty chann 0 -8 0 10
#000000 #00ff04 #00ff04 0 256;
#X obj 570 511 *~, f 5;
#X msg 585 480 1;
#X msg 618 480 0;
#X obj 630 515 *~, f 5;
#X msg 668 486 1;
#X msg 701 486 0;
#X obj 728 519 *~, f 5;
#X msg 766 490 1;
#X msg 799 490 0;
#X obj 823 524 *~, f 5;
#X msg 862 506 1;
#X msg 895 506 0;
#X obj 926 525 *~, f 5;
#X msg 965 507 1;
#X msg 998 507 0;
#X obj 1031 532 *~, f 5;
#X msg 1060 512 1;
#X msg 1093 512 0;
#X obj 1136 535 *~, f 5;
#X msg 1147 513 1;
#X msg 1180 513 0;
#X obj 1231 540 *~, f 5;
#X msg 1258 526 1;
#X msg 1291 526 0;
#X obj 1329 544 *~, f 5;
#X msg 1368 526 1;
#X msg 1401 526 0;
#X obj 1424 549 *~, f 5;
#X msg 1463 531 1;
#X msg 1496 531 0;
#X obj 1527 550 *~, f 5;
#X msg 1566 532 1;
#X msg 1599 532 0;
#X obj 1632 557 *~, f 5;
#X msg 1661 537 1;
#X msg 1694 537 0;
#X obj 913 129 adc~ ~13 14 15 16 17 18 19 20 21 22 23 24, f 57;
#X obj 418 602 *~ 1;
#X obj 587 456 sel 13;
#X obj 670 462 sel 14;
#X obj 768 466 sel 15;
#X obj 863 471 sel 16;
#X obj 967 472 sel 17;
#X obj 1062 477 sel 18;
#X obj 1148 478 sel 19;
#X obj 1265 481 sel 20;
#X obj 1364 483 sel 21;
#X obj 1464 485 sel 22;
#X obj 1564 504 sel 23;
#X obj 1661 502 sel 24;
#X connect 1 0 2 0;
#X connect 2 0 3 0;
#X connect 3 0 6 0;
#X connect 3 0 24 0;
#X connect 3 0 25 0;
#X connect 3 0 26 0;
#X connect 3 0 27 0;
#X connect 3 0 28 0;
#X connect 3 0 48 0;
#X connect 3 0 49 0;
#X connect 3 0 50 0;
#X connect 3 0 51 0;
#X connect 3 0 52 0;
#X connect 3 0 53 0;
#X connect 3 0 54 0;
#X connect 5 0 4 0;
#X connect 6 0 7 0;
#X connect 6 1 8 0;
#X connect 7 0 5 1;
#X connect 8 0 5 1;
#X connect 9 0 4 0;
#X connect 10 0 9 1;
#X connect 11 0 9 1;
#X connect 12 0 4 0;
#X connect 13 0 12 1;
#X connect 14 0 12 1;
#X connect 15 0 4 0;
#X connect 16 0 15 1;
#X connect 17 0 15 1;
#X connect 18 0 4 0;
#X connect 19 0 18 1;
#X connect 20 0 18 1;
#X connect 21 0 4 0;
#X connect 22 0 21 1;
#X connect 23 0 21 1;
#X connect 24 0 10 0;
#X connect 24 1 11 0;
#X connect 25 0 13 0;
#X connect 25 1 14 0;
#X connect 26 0 16 0;
#X connect 26 1 17 0;
#X connect 27 0 19 0;
#X connect 27 1 20 0;
#X connect 28 0 22 0;
#X connect 28 1 23 0;
#X connect 29 0 5 0;
#X connect 29 1 9 0;
#X connect 29 2 12 0;
#X connect 29 3 15 0;
#X connect 29 4 18 0;
#X connect 29 5 21 0;
#X connect 29 6 30 0;
#X connect 29 7 33 0;
#X connect 29 8 36 0;
#X connect 29 9 39 0;
#X connect 29 10 42 0;
#X connect 29 11 45 0;
#X connect 30 0 4 0;
#X connect 31 0 30 1;
#X connect 32 0 30 1;
#X connect 33 0 4 0;
#X connect 34 0 33 1;
#X connect 35 0 33 1;
#X connect 36 0 4 0;
#X connect 37 0 36 1;
#X connect 38 0 36 1;
#X connect 39 0 4 0;
#X connect 40 0 39 1;
#X connect 41 0 39 1;
#X connect 42 0 4 0;
#X connect 43 0 42 1;
#X connect 44 0 42 1;
#X connect 45 0 4 0;
#X connect 46 0 45 1;
#X connect 47 0 45 1;
#X connect 48 0 31 0;
#X connect 48 1 32 0;
#X connect 49 0 34 0;
#X connect 49 1 35 0;
#X connect 50 0 37 0;
#X connect 50 1 38 0;
#X connect 51 0 40 0;
#X connect 51 1 41 0;
#X connect 52 0 43 0;
#X connect 52 1 44 0;
#X connect 53 0 46 0;
#X connect 53 1 47 0;
#X connect 54 0 93 0;
#X connect 54 0 94 0;
#X connect 54 0 95 0;
#X connect 54 0 96 0;
#X connect 54 0 97 0;
#X connect 54 0 98 0;
#X connect 54 0 99 0;
#X connect 54 0 100 0;
#X connect 54 0 101 0;
#X connect 54 0 102 0;
#X connect 54 0 103 0;
#X connect 54 0 104 0;
#X connect 55 0 92 0;
#X connect 56 0 55 1;
#X connect 57 0 55 1;
#X connect 58 0 92 0;
#X connect 59 0 58 1;
#X connect 60 0 58 1;
#X connect 61 0 92 0;
#X connect 62 0 61 1;
#X connect 63 0 61 1;
#X connect 64 0 92 0;
#X connect 65 0 64 1;
#X connect 66 0 64 1;
#X connect 67 0 92 0;
#X connect 68 0 67 1;
#X connect 69 0 67 1;
#X connect 70 0 92 0;
#X connect 71 0 70 1;
#X connect 72 0 70 1;
#X connect 73 0 92 0;
#X connect 74 0 73 1;
#X connect 75 0 73 1;
#X connect 76 0 92 0;
#X connect 77 0 76 1;
#X connect 78 0 76 1;
#X connect 79 0 92 0;
#X connect 80 0 79 1;
#X connect 81 0 79 1;
#X connect 82 0 92 0;
#X connect 83 0 82 1;
#X connect 84 0 82 1;
#X connect 85 0 92 0;
#X connect 86 0 85 1;
#X connect 87 0 85 1;
#X connect 88 0 92 0;
#X connect 89 0 88 1;
#X connect 90 0 88 1;
#X connect 91 0 55 0;
#X connect 91 1 58 0;
#X connect 91 2 61 0;
#X connect 91 3 64 0;
#X connect 91 4 67 0;
#X connect 91 5 70 0;
#X connect 91 6 73 0;
#X connect 91 7 76 0;
#X connect 91 8 79 0;
#X connect 91 9 82 0;
#X connect 91 10 85 0;
#X connect 91 11 88 0;
#X connect 92 0 4 0;
#X connect 93 0 56 0;
#X connect 93 1 57 0;
#X connect 94 0 59 0;
#X connect 94 1 60 0;
#X connect 95 0 62 0;
#X connect 95 1 63 0;
#X connect 96 0 65 0;
#X connect 96 1 66 0;
#X connect 97 0 68 0;
#X connect 97 1 69 0;
#X connect 98 0 71 0;
#X connect 98 1 72 0;
#X connect 99 0 74 0;
#X connect 99 1 75 0;
#X connect 100 0 77 0;
#X connect 100 1 78 0;
#X connect 101 0 80 0;
#X connect 101 1 81 0;
#X connect 102 0 83 0;
#X connect 102 1 84 0;
#X connect 103 0 86 0;
#X connect 103 1 87 0;
#X connect 104 0 89 0;
#X connect 104 1 90 0;
#X coords 0 -1 1 1 85 60 2 100 100;
#X restore 19 42 pd selektr;
#N canvas 864 -723 484 454 pitchanlz 1;
#X floatatom 121 118 5 0 0 0 - - - 0;
#X floatatom 314 120 5 0 0 0 - - - 0;
#X text 120 136 pitch;
#X text 304 139 envelope;
#X obj 125 88 sigmund~ -hop 4096 pitch env;
#X obj 125 63 inlet~;
#X obj 127 176 moses 1;
#X obj 126 208 / 128;
#X obj 127 262 line;
#X floatatom 217 214 5 0 0 0 - - - 0;
#X obj 125 238 pack 0 44;
#X obj 102 415 outlet;
#X floatatom 161 318 5 0 0 0 - - - 0;
#X connect 4 0 0 0;
#X connect 4 0 6 0;
#X connect 4 1 1 0;
#X connect 5 0 4 0;
#X connect 6 1 7 0;
#X connect 7 0 10 0;
#X connect 8 0 11 0;
#X connect 8 0 12 0;
#X connect 9 0 10 1;
#X connect 10 0 8 0;
#X restore 340 515 pd pitchanlz;
#X obj 308 539 oscformat pitch1;
#X obj 329 589 hsl 128 15 0 1 0 0 empty empty empty -2 -8 0 10 #fcfcfc
#000000 #000000 0 1;
#X obj 328 568 spigot 1, f 9;
#X obj 496 588 hsl 128 15 0 1 0 0 empty empty empty -2 -8 0 10 #fcfcfc
#000000 #000000 0 1;
#X obj 495 567 spigot 1, f 9;
#X obj 667 589 hsl 128 15 0 1 0 0 empty empty empty -2 -8 0 10 #fcfcfc
#000000 #000000 0 1;
#X obj 666 568 spigot 1, f 9;
#N canvas 864 -723 484 454 pitchanlz 0;
#X floatatom 121 118 5 0 0 0 - - - 0;
#X floatatom 314 120 5 0 0 0 - - - 0;
#X text 120 136 pitch;
#X text 304 139 envelope;
#X obj 125 88 sigmund~ -hop 4096 pitch env;
#X obj 125 63 inlet~;
#X obj 127 176 moses 1;
#X obj 126 208 / 128;
#X obj 127 262 line;
#X floatatom 217 214 5 0 0 0 - - - 0;
#X obj 125 238 pack 0 44;
#X obj 102 415 outlet;
#X floatatom 161 318 5 0 0 0 - - - 0;
#X connect 4 0 0 0;
#X connect 4 0 6 0;
#X connect 4 1 1 0;
#X connect 5 0 4 0;
#X connect 6 1 7 0;
#X connect 7 0 10 0;
#X connect 8 0 11 0;
#X connect 8 0 12 0;
#X connect 9 0 10 1;
#X connect 10 0 8 0;
#X restore 478 511 pd pitchanlz;
#X obj 446 535 oscformat pitch2;
#N canvas 864 -723 484 454 pitchanlz 0;
#X floatatom 121 118 5 0 0 0 - - - 0;
#X floatatom 314 120 5 0 0 0 - - - 0;
#X text 120 136 pitch;
#X text 304 139 envelope;
#X obj 125 88 sigmund~ -hop 4096 pitch env;
#X obj 125 63 inlet~;
#X obj 127 176 moses 1;
#X obj 126 208 / 128;
#X obj 127 262 line;
#X floatatom 217 214 5 0 0 0 - - - 0;
#X obj 125 238 pack 0 44;
#X obj 102 415 outlet;
#X floatatom 161 318 5 0 0 0 - - - 0;
#X connect 4 0 0 0;
#X connect 4 0 6 0;
#X connect 4 1 1 0;
#X connect 5 0 4 0;
#X connect 6 1 7 0;
#X connect 7 0 10 0;
#X connect 8 0 11 0;
#X connect 8 0 12 0;
#X connect 9 0 10 1;
#X connect 10 0 8 0;
#X restore 634 510 pd pitchanlz;
#X obj 602 534 oscformat pitch3;
#X obj 1794 318 metro 20;
#X obj 1796 343 s mtr;
#N canvas 520 -722 848 513 Anlz 0;
#X obj 264 143 env~ 1024;
#X obj 266 188 line;
#X floatatom 321 101 5 0 0 0 - - - 0;
#X obj 348 255 / 22;
#X floatatom 337 165 5 0 0 0 - - - 0;
#X text 318 64 gain;
#X obj 116 122 hsl 64 15 10 300 0 0 empty empty smooth 0 6 0 10 #fcfcc4
#000000 #000000 0 1;
#X obj 116 104 hsl 64 15 0.5 1.5 0 0 empty empty gain 0 6 0 10 #fcfcc4
#000000 #000000 0 1;
#X floatatom 373 194 5 0 0 0 - - - 0;
#X obj 348 231 - 60;
#X obj 266 212 moses 60;
#X obj 264 80 *~ 1.13;
#X obj 264 101 *~ 1.13;
#X obj 270 300 * 100;
#X obj 269 324 int;
#X obj 269 347 change;
#X obj 268 371 / 100;
#X obj 115 141 hsl 64 15 0 128 0 0 empty empty resol 0 6 0 10 #fcfcc4
#000000 #000000 0 1;
#X obj 269 396 clip 0 1;
#X obj 264 164 pack 0 44;
#X obj 270 283 f;
#X msg 272 241 0;
#X obj 256 44 inlet~;
#X obj 438 158 r mtr;
#X obj 264 438 outlet;
#X connect 0 0 19 0;
#X connect 1 0 10 0;
#X connect 2 0 11 1;
#X connect 2 0 12 1;
#X connect 3 0 20 1;
#X connect 4 0 19 1;
#X connect 6 0 4 0;
#X connect 7 0 2 0;
#X connect 8 0 10 1;
#X connect 8 0 9 1;
#X connect 9 0 3 0;
#X connect 10 0 21 0;
#X connect 10 1 9 0;
#X connect 11 0 12 0;
#X connect 12 0 0 0;
#X connect 13 0 14 0;
#X connect 14 0 15 0;
#X connect 15 0 16 0;
#X connect 16 0 18 0;
#X connect 17 0 13 1;
#X connect 17 0 16 1;
#X connect 18 0 24 0;
#X connect 19 0 1 0;
#X connect 20 0 13 0;
#X connect 21 0 20 1;
#X connect 22 0 11 0;
#X connect 23 0 20 0;
#X coords 0 -1 1 1 85 60 2 100 100;
#X restore 19 109 pd Anlz;
#N canvas -110 -1018 1920 950 selektr 0;
#X obj 101 101 cnv 15 84 59 empty empty empty 20 12 0 14 #606060 #404040
0;
#X obj 114 42 loadbang;
#X msg 114 64 1;
#X obj 109 133 nbx 5 14 0 24 0 0 empty empty chann 0 -8 0 10 #000000
#00ff04 #00ff04 0 256;
#X obj 174 536 outlet~;
#X obj 42 287 *~, f 5;
#X obj 60 243 sel 1;
#X msg 58 267 1;
#X msg 91 267 0;
#X obj 102 291 *~, f 5;
#X msg 141 273 1;
#X msg 174 273 0;
#X obj 200 295 *~, f 5;
#X msg 239 277 1;
#X msg 272 277 0;
#X obj 295 300 *~, f 5;
#X msg 334 282 1;
#X msg 367 282 0;
#X obj 398 301 *~, f 5;
#X msg 437 283 1;
#X msg 470 283 0;
#X obj 503 308 *~, f 5;
#X msg 532 288 1;
#X msg 565 288 0;
#X obj 143 249 sel 2;
#X obj 241 253 sel 3;
#X obj 336 258 sel 4;
#X obj 439 259 sel 5;
#X obj 534 264 sel 6;
#X obj 502 127 adc~ 1 2 3 4 5 6 7 8 9 10 11 12, f 57;
#X obj 608 311 *~, f 5;
#X msg 619 289 1;
#X msg 652 289 0;
#X obj 703 316 *~, f 5;
#X msg 730 302 1;
#X msg 763 302 0;
#X obj 801 320 *~, f 5;
#X msg 840 302 1;
#X msg 873 302 0;
#X obj 896 325 *~, f 5;
#X msg 935 307 1;
#X msg 968 307 0;
#X obj 999 326 *~, f 5;
#X msg 1038 308 1;
#X msg 1071 308 0;
#X obj 1104 333 *~, f 5;
#X msg 1133 313 1;
#X msg 1166 313 0;
#X obj 621 265 sel 7;
#X obj 738 268 sel 8;
#X obj 837 270 sel 9;
#X obj 937 272 sel 10;
#X obj 1049 270 sel 11;
#X obj 1133 277 sel 12;
#X obj 642 414 nbx 5 14 -1e+37 1e+37 0 0 empty empty chann 0 -8 0 10
#000000 #00ff04 #00ff04 0 256;
#X obj 570 511 *~, f 5;
#X msg 585 480 1;
#X msg 618 480 0;
#X obj 630 515 *~, f 5;
#X msg 668 486 1;
#X msg 701 486 0;
#X obj 728 519 *~, f 5;
#X msg 766 490 1;
#X msg 799 490 0;
#X obj 823 524 *~, f 5;
#X msg 862 506 1;
#X msg 895 506 0;
#X obj 926 525 *~, f 5;
#X msg 965 507 1;
#X msg 998 507 0;
#X obj 1031 532 *~, f 5;
#X msg 1060 512 1;
#X msg 1093 512 0;
#X obj 1136 535 *~, f 5;
#X msg 1147 513 1;
#X msg 1180 513 0;
#X obj 1231 540 *~, f 5;
#X msg 1258 526 1;
#X msg 1291 526 0;
#X obj 1329 544 *~, f 5;
#X msg 1368 526 1;
#X msg 1401 526 0;
#X obj 1424 549 *~, f 5;
#X msg 1463 531 1;
#X msg 1496 531 0;
#X obj 1527 550 *~, f 5;
#X msg 1566 532 1;
#X msg 1599 532 0;
#X obj 1632 557 *~, f 5;
#X msg 1661 537 1;
#X msg 1694 537 0;
#X obj 913 129 adc~ ~13 14 15 16 17 18 19 20 21 22 23 24, f 57;
#X obj 418 602 *~ 1;
#X obj 587 456 sel 13;
#X obj 670 462 sel 14;
#X obj 768 466 sel 15;
#X obj 863 471 sel 16;
#X obj 967 472 sel 17;
#X obj 1062 477 sel 18;
#X obj 1148 478 sel 19;
#X obj 1265 481 sel 20;
#X obj 1364 483 sel 21;
#X obj 1464 485 sel 22;
#X obj 1564 504 sel 23;
#X obj 1661 502 sel 24;
#X connect 1 0 2 0;
#X connect 2 0 3 0;
#X connect 3 0 6 0;
#X connect 3 0 24 0;
#X connect 3 0 25 0;
#X connect 3 0 26 0;
#X connect 3 0 27 0;
#X connect 3 0 28 0;
#X connect 3 0 48 0;
#X connect 3 0 49 0;
#X connect 3 0 50 0;
#X connect 3 0 51 0;
#X connect 3 0 52 0;
#X connect 3 0 53 0;
#X connect 3 0 54 0;
#X connect 5 0 4 0;
#X connect 6 0 7 0;
#X connect 6 1 8 0;
#X connect 7 0 5 1;
#X connect 8 0 5 1;
#X connect 9 0 4 0;
#X connect 10 0 9 1;
#X connect 11 0 9 1;
#X connect 12 0 4 0;
#X connect 13 0 12 1;
#X connect 14 0 12 1;
#X connect 15 0 4 0;
#X connect 16 0 15 1;
#X connect 17 0 15 1;
#X connect 18 0 4 0;
#X connect 19 0 18 1;
#X connect 20 0 18 1;
#X connect 21 0 4 0;
#X connect 22 0 21 1;
#X connect 23 0 21 1;
#X connect 24 0 10 0;
#X connect 24 1 11 0;
#X connect 25 0 13 0;
#X connect 25 1 14 0;
#X connect 26 0 16 0;
#X connect 26 1 17 0;
#X connect 27 0 19 0;
#X connect 27 1 20 0;
#X connect 28 0 22 0;
#X connect 28 1 23 0;
#X connect 29 0 5 0;
#X connect 29 1 9 0;
#X connect 29 2 12 0;
#X connect 29 3 15 0;
#X connect 29 4 18 0;
#X connect 29 5 21 0;
#X connect 29 6 30 0;
#X connect 29 7 33 0;
#X connect 29 8 36 0;
#X connect 29 9 39 0;
#X connect 29 10 42 0;
#X connect 29 11 45 0;
#X connect 30 0 4 0;
#X connect 31 0 30 1;
#X connect 32 0 30 1;
#X connect 33 0 4 0;
#X connect 34 0 33 1;
#X connect 35 0 33 1;
#X connect 36 0 4 0;
#X connect 37 0 36 1;
#X connect 38 0 36 1;
#X connect 39 0 4 0;
#X connect 40 0 39 1;
#X connect 41 0 39 1;
#X connect 42 0 4 0;
#X connect 43 0 42 1;
#X connect 44 0 42 1;
#X connect 45 0 4 0;
#X connect 46 0 45 1;
#X connect 47 0 45 1;
#X connect 48 0 31 0;
#X connect 48 1 32 0;
#X connect 49 0 34 0;
#X connect 49 1 35 0;
#X connect 50 0 37 0;
#X connect 50 1 38 0;
#X connect 51 0 40 0;
#X connect 51 1 41 0;
#X connect 52 0 43 0;
#X connect 52 1 44 0;
#X connect 53 0 46 0;
#X connect 53 1 47 0;
#X connect 54 0 93 0;
#X connect 54 0 94 0;
#X connect 54 0 95 0;
#X connect 54 0 96 0;
#X connect 54 0 97 0;
#X connect 54 0 98 0;
#X connect 54 0 99 0;
#X connect 54 0 100 0;
#X connect 54 0 101 0;
#X connect 54 0 102 0;
#X connect 54 0 103 0;
#X connect 54 0 104 0;
#X connect 55 0 92 0;
#X connect 56 0 55 1;
#X connect 57 0 55 1;
#X connect 58 0 92 0;
#X connect 59 0 58 1;
#X connect 60 0 58 1;
#X connect 61 0 92 0;
#X connect 62 0 61 1;
#X connect 63 0 61 1;
#X connect 64 0 92 0;
#X connect 65 0 64 1;
#X connect 66 0 64 1;
#X connect 67 0 92 0;
#X connect 68 0 67 1;
#X connect 69 0 67 1;
#X connect 70 0 92 0;
#X connect 71 0 70 1;
#X connect 72 0 70 1;
#X connect 73 0 92 0;
#X connect 74 0 73 1;
#X connect 75 0 73 1;
#X connect 76 0 92 0;
#X connect 77 0 76 1;
#X connect 78 0 76 1;
#X connect 79 0 92 0;
#X connect 80 0 79 1;
#X connect 81 0 79 1;
#X connect 82 0 92 0;
#X connect 83 0 82 1;
#X connect 84 0 82 1;
#X connect 85 0 92 0;
#X connect 86 0 85 1;
#X connect 87 0 85 1;
#X connect 88 0 92 0;
#X connect 89 0 88 1;
#X connect 90 0 88 1;
#X connect 91 0 55 0;
#X connect 91 1 58 0;
#X connect 91 2 61 0;
#X connect 91 3 64 0;
#X connect 91 4 67 0;
#X connect 91 5 70 0;
#X connect 91 6 73 0;
#X connect 91 7 76 0;
#X connect 91 8 79 0;
#X connect 91 9 82 0;
#X connect 91 10 85 0;
#X connect 91 11 88 0;
#X connect 92 0 4 0;
#X connect 93 0 56 0;
#X connect 93 1 57 0;
#X connect 94 0 59 0;
#X connect 94 1 60 0;
#X connect 95 0 62 0;
#X connect 95 1 63 0;
#X connect 96 0 65 0;
#X connect 96 1 66 0;
#X connect 97 0 68 0;
#X connect 97 1 69 0;
#X connect 98 0 71 0;
#X connect 98 1 72 0;
#X connect 99 0 74 0;
#X connect 99 1 75 0;
#X connect 100 0 77 0;
#X connect 100 1 78 0;
#X connect 101 0 80 0;
#X connect 101 1 81 0;
#X connect 102 0 83 0;
#X connect 102 1 84 0;
#X connect 103 0 86 0;
#X connect 103 1 87 0;
#X connect 104 0 89 0;
#X connect 104 1 90 0;
#X coords 0 -1 1 1 85 60 2 100 100;
#X restore 112 42 pd selektr;
#N canvas 520 -722 848 513 Anlz 0;
#X obj 264 143 env~ 1024;
#X obj 266 188 line;
#X floatatom 321 101 5 0 0 0 - - - 0;
#X obj 348 255 / 22;
#X floatatom 337 165 5 0 0 0 - - - 0;
#X text 318 64 gain;
#X obj 116 122 hsl 64 15 10 300 0 0 empty empty smooth 0 6 0 10 #fcfcc4
#000000 #000000 0 1;
#X obj 116 104 hsl 64 15 0.5 1.5 0 0 empty empty gain 0 6 0 10 #fcfcc4
#000000 #000000 0 1;
#X floatatom 373 194 5 0 0 0 - - - 0;
#X obj 348 231 - 60;
#X obj 266 212 moses 60;
#X obj 264 80 *~ 1.13;
#X obj 264 101 *~ 1.13;
#X obj 270 300 * 100;
#X obj 269 324 int;
#X obj 269 347 change;
#X obj 268 371 / 100;
#X obj 115 141 hsl 64 15 0 128 0 0 empty empty resol 0 6 0 10 #fcfcc4
#000000 #000000 0 1;
#X obj 269 396 clip 0 1;
#X obj 264 164 pack 0 44;
#X obj 270 283 f;
#X msg 272 241 0;
#X obj 256 44 inlet~;
#X obj 438 158 r mtr;
#X obj 264 438 outlet;
#X connect 0 0 19 0;
#X connect 1 0 10 0;
#X connect 2 0 11 1;
#X connect 2 0 12 1;
#X connect 3 0 20 1;
#X connect 4 0 19 1;
#X connect 6 0 4 0;
#X connect 7 0 2 0;
#X connect 8 0 10 1;
#X connect 8 0 9 1;
#X connect 9 0 3 0;
#X connect 10 0 21 0;
#X connect 10 1 9 0;
#X connect 11 0 12 0;
#X connect 12 0 0 0;
#X connect 13 0 14 0;
#X connect 14 0 15 0;
#X connect 15 0 16 0;
#X connect 16 0 18 0;
#X connect 17 0 13 1;
#X connect 17 0 16 1;
#X connect 18 0 24 0;
#X connect 19 0 1 0;
#X connect 20 0 13 0;
#X connect 21 0 20 1;
#X connect 22 0 11 0;
#X connect 23 0 20 0;
#X coords 0 -1 1 1 85 60 2 100 100;
#X restore 112 109 pd Anlz;
#N canvas -110 -1018 1920 950 selektr 0;
#X obj 101 101 cnv 15 84 59 empty empty empty 20 12 0 14 #606060 #404040
0;
#X obj 114 42 loadbang;
#X msg 114 64 1;
#X obj 109 133 nbx 5 14 0 24 0 0 empty empty chann 0 -8 0 10 #000000
#00ff04 #00ff04 0 256;
#X obj 174 536 outlet~;
#X obj 42 287 *~, f 5;
#X obj 60 243 sel 1;
#X msg 58 267 1;
#X msg 91 267 0;
#X obj 102 291 *~, f 5;
#X msg 141 273 1;
#X msg 174 273 0;
#X obj 200 295 *~, f 5;
#X msg 239 277 1;
#X msg 272 277 0;
#X obj 295 300 *~, f 5;
#X msg 334 282 1;
#X msg 367 282 0;
#X obj 398 301 *~, f 5;
#X msg 437 283 1;
#X msg 470 283 0;
#X obj 503 308 *~, f 5;
#X msg 532 288 1;
#X msg 565 288 0;
#X obj 143 249 sel 2;
#X obj 241 253 sel 3;
#X obj 336 258 sel 4;
#X obj 439 259 sel 5;
#X obj 534 264 sel 6;
#X obj 502 127 adc~ 1 2 3 4 5 6 7 8 9 10 11 12, f 57;
#X obj 608 311 *~, f 5;
#X msg 619 289 1;
#X msg 652 289 0;
#X obj 703 316 *~, f 5;
#X msg 730 302 1;
#X msg 763 302 0;
#X obj 801 320 *~, f 5;
#X msg 840 302 1;
#X msg 873 302 0;
#X obj 896 325 *~, f 5;
#X msg 935 307 1;
#X msg 968 307 0;
#X obj 999 326 *~, f 5;
#X msg 1038 308 1;
#X msg 1071 308 0;
#X obj 1104 333 *~, f 5;
#X msg 1133 313 1;
#X msg 1166 313 0;
#X obj 621 265 sel 7;
#X obj 738 268 sel 8;
#X obj 837 270 sel 9;
#X obj 937 272 sel 10;
#X obj 1049 270 sel 11;
#X obj 1133 277 sel 12;
#X obj 642 414 nbx 5 14 -1e+37 1e+37 0 0 empty empty chann 0 -8 0 10
#000000 #00ff04 #00ff04 0 256;
#X obj 570 511 *~, f 5;
#X msg 585 480 1;
#X msg 618 480 0;
#X obj 630 515 *~, f 5;
#X msg 668 486 1;
#X msg 701 486 0;
#X obj 728 519 *~, f 5;
#X msg 766 490 1;
#X msg 799 490 0;
#X obj 823 524 *~, f 5;
#X msg 862 506 1;
#X msg 895 506 0;
#X obj 926 525 *~, f 5;
#X msg 965 507 1;
#X msg 998 507 0;
#X obj 1031 532 *~, f 5;
#X msg 1060 512 1;
#X msg 1093 512 0;
#X obj 1136 535 *~, f 5;
#X msg 1147 513 1;
#X msg 1180 513 0;
#X obj 1231 540 *~, f 5;
#X msg 1258 526 1;
#X msg 1291 526 0;
#X obj 1329 544 *~, f 5;
#X msg 1368 526 1;
#X msg 1401 526 0;
#X obj 1424 549 *~, f 5;
#X msg 1463 531 1;
#X msg 1496 531 0;
#X obj 1527 550 *~, f 5;
#X msg 1566 532 1;
#X msg 1599 532 0;
#X obj 1632 557 *~, f 5;
#X msg 1661 537 1;
#X msg 1694 537 0;
#X obj 913 129 adc~ ~13 14 15 16 17 18 19 20 21 22 23 24, f 57;
#X obj 418 602 *~ 1;
#X obj 587 456 sel 13;
#X obj 670 462 sel 14;
#X obj 768 466 sel 15;
#X obj 863 471 sel 16;
#X obj 967 472 sel 17;
#X obj 1062 477 sel 18;
#X obj 1148 478 sel 19;
#X obj 1265 481 sel 20;
#X obj 1364 483 sel 21;
#X obj 1464 485 sel 22;
#X obj 1564 504 sel 23;
#X obj 1661 502 sel 24;
#X connect 1 0 2 0;
#X connect 2 0 3 0;
#X connect 3 0 6 0;
#X connect 3 0 24 0;
#X connect 3 0 25 0;
#X connect 3 0 26 0;
#X connect 3 0 27 0;
#X connect 3 0 28 0;
#X connect 3 0 48 0;
#X connect 3 0 49 0;
#X connect 3 0 50 0;
#X connect 3 0 51 0;
#X connect 3 0 52 0;
#X connect 3 0 53 0;
#X connect 3 0 54 0;
#X connect 5 0 4 0;
#X connect 6 0 7 0;
#X connect 6 1 8 0;
#X connect 7 0 5 1;
#X connect 8 0 5 1;
#X connect 9 0 4 0;
#X connect 10 0 9 1;
#X connect 11 0 9 1;
#X connect 12 0 4 0;
#X connect 13 0 12 1;
#X connect 14 0 12 1;
#X connect 15 0 4 0;
#X connect 16 0 15 1;
#X connect 17 0 15 1;
#X connect 18 0 4 0;
#X connect 19 0 18 1;
#X connect 20 0 18 1;
#X connect 21 0 4 0;
#X connect 22 0 21 1;
#X connect 23 0 21 1;
#X connect 24 0 10 0;
#X connect 24 1 11 0;
#X connect 25 0 13 0;
#X connect 25 1 14 0;
#X connect 26 0 16 0;
#X connect 26 1 17 0;
#X connect 27 0 19 0;
#X connect 27 1 20 0;
#X connect 28 0 22 0;
#X connect 28 1 23 0;
#X connect 29 0 5 0;
#X connect 29 1 9 0;
#X connect 29 2 12 0;
#X connect 29 3 15 0;
#X connect 29 4 18 0;
#X connect 29 5 21 0;
#X connect 29 6 30 0;
#X connect 29 7 33 0;
#X connect 29 8 36 0;
#X connect 29 9 39 0;
#X connect 29 10 42 0;
#X connect 29 11 45 0;
#X connect 30 0 4 0;
#X connect 31 0 30 1;
#X connect 32 0 30 1;
#X connect 33 0 4 0;
#X connect 34 0 33 1;
#X connect 35 0 33 1;
#X connect 36 0 4 0;
#X connect 37 0 36 1;
#X connect 38 0 36 1;
#X connect 39 0 4 0;
#X connect 40 0 39 1;
#X connect 41 0 39 1;
#X connect 42 0 4 0;
#X connect 43 0 42 1;
#X connect 44 0 42 1;
#X connect 45 0 4 0;
#X connect 46 0 45 1;
#X connect 47 0 45 1;
#X connect 48 0 31 0;
#X connect 48 1 32 0;
#X connect 49 0 34 0;
#X connect 49 1 35 0;
#X connect 50 0 37 0;
#X connect 50 1 38 0;
#X connect 51 0 40 0;
#X connect 51 1 41 0;
#X connect 52 0 43 0;
#X connect 52 1 44 0;
#X connect 53 0 46 0;
#X connect 53 1 47 0;
#X connect 54 0 93 0;
#X connect 54 0 94 0;
#X connect 54 0 95 0;
#X connect 54 0 96 0;
#X connect 54 0 97 0;
#X connect 54 0 98 0;
#X connect 54 0 99 0;
#X connect 54 0 100 0;
#X connect 54 0 101 0;
#X connect 54 0 102 0;
#X connect 54 0 103 0;
#X connect 54 0 104 0;
#X connect 55 0 92 0;
#X connect 56 0 55 1;
#X connect 57 0 55 1;
#X connect 58 0 92 0;
#X connect 59 0 58 1;
#X connect 60 0 58 1;
#X connect 61 0 92 0;
#X connect 62 0 61 1;
#X connect 63 0 61 1;
#X connect 64 0 92 0;
#X connect 65 0 64 1;
#X connect 66 0 64 1;
#X connect 67 0 92 0;
#X connect 68 0 67 1;
#X connect 69 0 67 1;
#X connect 70 0 92 0;
#X connect 71 0 70 1;
#X connect 72 0 70 1;
#X connect 73 0 92 0;
#X connect 74 0 73 1;
#X connect 75 0 73 1;
#X connect 76 0 92 0;
#X connect 77 0 76 1;
#X connect 78 0 76 1;
#X connect 79 0 92 0;
#X connect 80 0 79 1;
#X connect 81 0 79 1;
#X connect 82 0 92 0;
#X connect 83 0 82 1;
#X connect 84 0 82 1;
#X connect 85 0 92 0;
#X connect 86 0 85 1;
#X connect 87 0 85 1;
#X connect 88 0 92 0;
#X connect 89 0 88 1;
#X connect 90 0 88 1;
#X connect 91 0 55 0;
#X connect 91 1 58 0;
#X connect 91 2 61 0;
#X connect 91 3 64 0;
#X connect 91 4 67 0;
#X connect 91 5 70 0;
#X connect 91 6 73 0;
#X connect 91 7 76 0;
#X connect 91 8 79 0;
#X connect 91 9 82 0;
#X connect 91 10 85 0;
#X connect 91 11 88 0;
#X connect 92 0 4 0;
#X connect 93 0 56 0;
#X connect 93 1 57 0;
#X connect 94 0 59 0;
#X connect 94 1 60 0;
#X connect 95 0 62 0;
#X connect 95 1 63 0;
#X connect 96 0 65 0;
#X connect 96 1 66 0;
#X connect 97 0 68 0;
#X connect 97 1 69 0;
#X connect 98 0 71 0;
#X connect 98 1 72 0;
#X connect 99 0 74 0;
#X connect 99 1 75 0;
#X connect 100 0 77 0;
#X connect 100 1 78 0;
#X connect 101 0 80 0;
#X connect 101 1 81 0;
#X connect 102 0 83 0;
#X connect 102 1 84 0;
#X connect 103 0 86 0;
#X connect 103 1 87 0;
#X connect 104 0 89 0;
#X connect 104 1 90 0;
#X coords 0 -1 1 1 85 60 2 100 100;
#X restore 204 42 pd selektr;
#N canvas 520 -722 848 513 Anlz 0;
#X obj 264 143 env~ 1024;
#X obj 266 188 line;
#X floatatom 321 101 5 0 0 0 - - - 0;
#X obj 348 255 / 22;
#X floatatom 337 165 5 0 0 0 - - - 0;
#X text 318 64 gain;
#X obj 116 122 hsl 64 15 10 300 0 0 empty empty smooth 0 6 0 10 #fcfcc4
#000000 #000000 0 1;
#X obj 116 104 hsl 64 15 0.5 1.5 0 0 empty empty gain 0 6 0 10 #fcfcc4
#000000 #000000 0 1;
#X floatatom 373 194 5 0 0 0 - - - 0;
#X obj 348 231 - 60;
#X obj 266 212 moses 60;
#X obj 264 80 *~ 1.13;
#X obj 264 101 *~ 1.13;
#X obj 270 300 * 100;
#X obj 269 324 int;
#X obj 269 347 change;
#X obj 268 371 / 100;
#X obj 115 141 hsl 64 15 0 128 0 0 empty empty resol 0 6 0 10 #fcfcc4
#000000 #000000 0 1;
#X obj 269 396 clip 0 1;
#X obj 264 164 pack 0 44;
#X obj 270 283 f;
#X msg 272 241 0;
#X obj 256 44 inlet~;
#X obj 438 158 r mtr;
#X obj 264 438 outlet;
#X connect 0 0 19 0;
#X connect 1 0 10 0;
#X connect 2 0 11 1;
#X connect 2 0 12 1;
#X connect 3 0 20 1;
#X connect 4 0 19 1;
#X connect 6 0 4 0;
#X connect 7 0 2 0;
#X connect 8 0 10 1;
#X connect 8 0 9 1;
#X connect 9 0 3 0;
#X connect 10 0 21 0;
#X connect 10 1 9 0;
#X connect 11 0 12 0;
#X connect 12 0 0 0;
#X connect 13 0 14 0;
#X connect 14 0 15 0;
#X connect 15 0 16 0;
#X connect 16 0 18 0;
#X connect 17 0 13 1;
#X connect 17 0 16 1;
#X connect 18 0 24 0;
#X connect 19 0 1 0;
#X connect 20 0 13 0;
#X connect 21 0 20 1;
#X connect 22 0 11 0;
#X connect 23 0 20 0;
#X coords 0 -1 1 1 85 60 2 100 100;
#X restore 204 109 pd Anlz;
#N canvas -110 -1018 1920 950 selektr 0;
#X obj 101 101 cnv 15 84 59 empty empty empty 20 12 0 14 #606060 #404040
0;
#X obj 114 42 loadbang;
#X msg 114 64 1;
#X obj 109 133 nbx 5 14 0 24 0 0 empty empty chann 0 -8 0 10 #000000
#00ff04 #00ff04 0 256;
#X obj 174 536 outlet~;
#X obj 42 287 *~, f 5;
#X obj 60 243 sel 1;
#X msg 58 267 1;
#X msg 91 267 0;
#X obj 102 291 *~, f 5;
#X msg 141 273 1;
#X msg 174 273 0;
#X obj 200 295 *~, f 5;
#X msg 239 277 1;
#X msg 272 277 0;
#X obj 295 300 *~, f 5;
#X msg 334 282 1;
#X msg 367 282 0;
#X obj 398 301 *~, f 5;
#X msg 437 283 1;
#X msg 470 283 0;
#X obj 503 308 *~, f 5;
#X msg 532 288 1;
#X msg 565 288 0;
#X obj 143 249 sel 2;
#X obj 241 253 sel 3;
#X obj 336 258 sel 4;
#X obj 439 259 sel 5;
#X obj 534 264 sel 6;
#X obj 502 127 adc~ 1 2 3 4 5 6 7 8 9 10 11 12, f 57;
#X obj 608 311 *~, f 5;
#X msg 619 289 1;
#X msg 652 289 0;
#X obj 703 316 *~, f 5;
#X msg 730 302 1;
#X msg 763 302 0;
#X obj 801 320 *~, f 5;
#X msg 840 302 1;
#X msg 873 302 0;
#X obj 896 325 *~, f 5;
#X msg 935 307 1;
#X msg 968 307 0;
#X obj 999 326 *~, f 5;
#X msg 1038 308 1;
#X msg 1071 308 0;
#X obj 1104 333 *~, f 5;
#X msg 1133 313 1;
#X msg 1166 313 0;
#X obj 621 265 sel 7;
#X obj 738 268 sel 8;
#X obj 837 270 sel 9;
#X obj 937 272 sel 10;
#X obj 1049 270 sel 11;
#X obj 1133 277 sel 12;
#X obj 642 414 nbx 5 14 -1e+37 1e+37 0 0 empty empty chann 0 -8 0 10
#000000 #00ff04 #00ff04 0 256;
#X obj 570 511 *~, f 5;
#X msg 585 480 1;
#X msg 618 480 0;
#X obj 630 515 *~, f 5;
#X msg 668 486 1;
#X msg 701 486 0;
#X obj 728 519 *~, f 5;
#X msg 766 490 1;
#X msg 799 490 0;
#X obj 823 524 *~, f 5;
#X msg 862 506 1;
#X msg 895 506 0;
#X obj 926 525 *~, f 5;
#X msg 965 507 1;
#X msg 998 507 0;
#X obj 1031 532 *~, f 5;
#X msg 1060 512 1;
#X msg 1093 512 0;
#X obj 1136 535 *~, f 5;
#X msg 1147 513 1;
#X msg 1180 513 0;
#X obj 1231 540 *~, f 5;
#X msg 1258 526 1;
#X msg 1291 526 0;
#X obj 1329 544 *~, f 5;
#X msg 1368 526 1;
#X msg 1401 526 0;
#X obj 1424 549 *~, f 5;
#X msg 1463 531 1;
#X msg 1496 531 0;
#X obj 1527 550 *~, f 5;
#X msg 1566 532 1;
#X msg 1599 532 0;
#X obj 1632 557 *~, f 5;
#X msg 1661 537 1;
#X msg 1694 537 0;
#X obj 913 129 adc~ ~13 14 15 16 17 18 19 20 21 22 23 24, f 57;
#X obj 418 602 *~ 1;
#X obj 587 456 sel 13;
#X obj 670 462 sel 14;
#X obj 768 466 sel 15;
#X obj 863 471 sel 16;
#X obj 967 472 sel 17;
#X obj 1062 477 sel 18;
#X obj 1148 478 sel 19;
#X obj 1265 481 sel 20;
#X obj 1364 483 sel 21;
#X obj 1464 485 sel 22;
#X obj 1564 504 sel 23;
#X obj 1661 502 sel 24;
#X connect 1 0 2 0;
#X connect 2 0 3 0;
#X connect 3 0 6 0;
#X connect 3 0 24 0;
#X connect 3 0 25 0;
#X connect 3 0 26 0;
#X connect 3 0 27 0;
#X connect 3 0 28 0;
#X connect 3 0 48 0;
#X connect 3 0 49 0;
#X connect 3 0 50 0;
#X connect 3 0 51 0;
#X connect 3 0 52 0;
#X connect 3 0 53 0;
#X connect 3 0 54 0;
#X connect 5 0 4 0;
#X connect 6 0 7 0;
#X connect 6 1 8 0;
#X connect 7 0 5 1;
#X connect 8 0 5 1;
#X connect 9 0 4 0;
#X connect 10 0 9 1;
#X connect 11 0 9 1;
#X connect 12 0 4 0;
#X connect 13 0 12 1;
#X connect 14 0 12 1;
#X connect 15 0 4 0;
#X connect 16 0 15 1;
#X connect 17 0 15 1;
#X connect 18 0 4 0;
#X connect 19 0 18 1;
#X connect 20 0 18 1;
#X connect 21 0 4 0;
#X connect 22 0 21 1;
#X connect 23 0 21 1;
#X connect 24 0 10 0;
#X connect 24 1 11 0;
#X connect 25 0 13 0;
#X connect 25 1 14 0;
#X connect 26 0 16 0;
#X connect 26 1 17 0;
#X connect 27 0 19 0;
#X connect 27 1 20 0;
#X connect 28 0 22 0;
#X connect 28 1 23 0;
#X connect 29 0 5 0;
#X connect 29 1 9 0;
#X connect 29 2 12 0;
#X connect 29 3 15 0;
#X connect 29 4 18 0;
#X connect 29 5 21 0;
#X connect 29 6 30 0;
#X connect 29 7 33 0;
#X connect 29 8 36 0;
#X connect 29 9 39 0;
#X connect 29 10 42 0;
#X connect 29 11 45 0;
#X connect 30 0 4 0;
#X connect 31 0 30 1;
#X connect 32 0 30 1;
#X connect 33 0 4 0;
#X connect 34 0 33 1;
#X connect 35 0 33 1;
#X connect 36 0 4 0;
#X connect 37 0 36 1;
#X connect 38 0 36 1;
#X connect 39 0 4 0;
#X connect 40 0 39 1;
#X connect 41 0 39 1;
#X connect 42 0 4 0;
#X connect 43 0 42 1;
#X connect 44 0 42 1;
#X connect 45 0 4 0;
#X connect 46 0 45 1;
#X connect 47 0 45 1;
#X connect 48 0 31 0;
#X connect 48 1 32 0;
#X connect 49 0 34 0;
#X connect 49 1 35 0;
#X connect 50 0 37 0;
#X connect 50 1 38 0;
#X connect 51 0 40 0;
#X connect 51 1 41 0;
#X connect 52 0 43 0;
#X connect 52 1 44 0;
#X connect 53 0 46 0;
#X connect 53 1 47 0;
#X connect 54 0 93 0;
#X connect 54 0 94 0;
#X connect 54 0 95 0;
#X connect 54 0 96 0;
#X connect 54 0 97 0;
#X connect 54 0 98 0;
#X connect 54 0 99 0;
#X connect 54 0 100 0;
#X connect 54 0 101 0;
#X connect 54 0 102 0;
#X connect 54 0 103 0;
#X connect 54 0 104 0;
#X connect 55 0 92 0;
#X connect 56 0 55 1;
#X connect 57 0 55 1;
#X connect 58 0 92 0;
#X connect 59 0 58 1;
#X connect 60 0 58 1;
#X connect 61 0 92 0;
#X connect 62 0 61 1;
#X connect 63 0 61 1;
#X connect 64 0 92 0;
#X connect 65 0 64 1;
#X connect 66 0 64 1;
#X connect 67 0 92 0;
#X connect 68 0 67 1;
#X connect 69 0 67 1;
#X connect 70 0 92 0;
#X connect 71 0 70 1;
#X connect 72 0 70 1;
#X connect 73 0 92 0;
#X connect 74 0 73 1;
#X connect 75 0 73 1;
#X connect 76 0 92 0;
#X connect 77 0 76 1;
#X connect 78 0 76 1;
#X connect 79 0 92 0;
#X connect 80 0 79 1;
#X connect 81 0 79 1;
#X connect 82 0 92 0;
#X connect 83 0 82 1;
#X connect 84 0 82 1;
#X connect 85 0 92 0;
#X connect 86 0 85 1;
#X connect 87 0 85 1;
#X connect 88 0 92 0;
#X connect 89 0 88 1;
#X connect 90 0 88 1;
#X connect 91 0 55 0;
#X connect 91 1 58 0;
#X connect 91 2 61 0;
#X connect 91 3 64 0;
#X connect 91 4 67 0;
#X connect 91 5 70 0;
#X connect 91 6 73 0;
#X connect 91 7 76 0;
#X connect 91 8 79 0;
#X connect 91 9 82 0;
#X connect 91 10 85 0;
#X connect 91 11 88 0;
#X connect 92 0 4 0;
#X connect 93 0 56 0;
#X connect 93 1 57 0;
#X connect 94 0 59 0;
#X connect 94 1 60 0;
#X connect 95 0 62 0;
#X connect 95 1 63 0;
#X connect 96 0 65 0;
#X connect 96 1 66 0;
#X connect 97 0 68 0;
#X connect 97 1 69 0;
#X connect 98 0 71 0;
#X connect 98 1 72 0;
#X connect 99 0 74 0;
#X connect 99 1 75 0;
#X connect 100 0 77 0;
#X connect 100 1 78 0;
#X connect 101 0 80 0;
#X connect 101 1 81 0;
#X connect 102 0 83 0;
#X connect 102 1 84 0;
#X connect 103 0 86 0;
#X connect 103 1 87 0;
#X connect 104 0 89 0;
#X connect 104 1 90 0;
#X coords 0 -1 1 1 85 60 2 100 100;
#X restore 296 42 pd selektr;
#N canvas 520 -722 848 513 Anlz 0;
#X obj 264 143 env~ 1024;
#X obj 266 188 line;
#X floatatom 321 101 5 0 0 0 - - - 0;
#X obj 348 255 / 22;
#X floatatom 337 165 5 0 0 0 - - - 0;
#X text 318 64 gain;
#X obj 116 122 hsl 64 15 10 300 0 0 empty empty smooth 0 6 0 10 #fcfcc4
#000000 #000000 0 1;
#X obj 116 104 hsl 64 15 0.5 1.5 0 0 empty empty gain 0 6 0 10 #fcfcc4
#000000 #000000 0 1;
#X floatatom 373 194 5 0 0 0 - - - 0;
#X obj 348 231 - 60;
#X obj 266 212 moses 60;
#X obj 264 80 *~ 1.13;
#X obj 264 101 *~ 1.13;
#X obj 270 300 * 100;
#X obj 269 324 int;
#X obj 269 347 change;
#X obj 268 371 / 100;
#X obj 115 141 hsl 64 15 0 128 0 0 empty empty resol 0 6 0 10 #fcfcc4
#000000 #000000 0 1;
#X obj 269 396 clip 0 1;
#X obj 264 164 pack 0 44;
#X obj 270 283 f;
#X msg 272 241 0;
#X obj 256 44 inlet~;
#X obj 438 158 r mtr;
#X obj 264 438 outlet;
#X connect 0 0 19 0;
#X connect 1 0 10 0;
#X connect 2 0 11 1;
#X connect 2 0 12 1;
#X connect 3 0 20 1;
#X connect 4 0 19 1;
#X connect 6 0 4 0;
#X connect 7 0 2 0;
#X connect 8 0 10 1;
#X connect 8 0 9 1;
#X connect 9 0 3 0;
#X connect 10 0 21 0;
#X connect 10 1 9 0;
#X connect 11 0 12 0;
#X connect 12 0 0 0;
#X connect 13 0 14 0;
#X connect 14 0 15 0;
#X connect 15 0 16 0;
#X connect 16 0 18 0;
#X connect 17 0 13 1;
#X connect 17 0 16 1;
#X connect 18 0 24 0;
#X connect 19 0 1 0;
#X connect 20 0 13 0;
#X connect 21 0 20 1;
#X connect 22 0 11 0;
#X connect 23 0 20 0;
#X coords 0 -1 1 1 85 60 2 100 100;
#X restore 296 109 pd Anlz;
#N canvas -110 -1018 1920 950 selektr 0;
#X obj 101 101 cnv 15 84 59 empty empty empty 20 12 0 14 #606060 #404040
0;
#X obj 114 42 loadbang;
#X msg 114 64 1;
#X obj 109 133 nbx 5 14 0 24 0 0 empty empty chann 0 -8 0 10 #000000
#00ff04 #00ff04 0 256;
#X obj 174 536 outlet~;
#X obj 42 287 *~, f 5;
#X obj 60 243 sel 1;
#X msg 58 267 1;
#X msg 91 267 0;
#X obj 102 291 *~, f 5;
#X msg 141 273 1;
#X msg 174 273 0;
#X obj 200 295 *~, f 5;
#X msg 239 277 1;
#X msg 272 277 0;
#X obj 295 300 *~, f 5;
#X msg 334 282 1;
#X msg 367 282 0;
#X obj 398 301 *~, f 5;
#X msg 437 283 1;
#X msg 470 283 0;
#X obj 503 308 *~, f 5;
#X msg 532 288 1;
#X msg 565 288 0;
#X obj 143 249 sel 2;
#X obj 241 253 sel 3;
#X obj 336 258 sel 4;
#X obj 439 259 sel 5;
#X obj 534 264 sel 6;
#X obj 502 127 adc~ 1 2 3 4 5 6 7 8 9 10 11 12, f 57;
#X obj 608 311 *~, f 5;
#X msg 619 289 1;
#X msg 652 289 0;
#X obj 703 316 *~, f 5;
#X msg 730 302 1;
#X msg 763 302 0;
#X obj 801 320 *~, f 5;
#X msg 840 302 1;
#X msg 873 302 0;
#X obj 896 325 *~, f 5;
#X msg 935 307 1;
#X msg 968 307 0;
#X obj 999 326 *~, f 5;
#X msg 1038 308 1;
#X msg 1071 308 0;
#X obj 1104 333 *~, f 5;
#X msg 1133 313 1;
#X msg 1166 313 0;
#X obj 621 265 sel 7;
#X obj 738 268 sel 8;
#X obj 837 270 sel 9;
#X obj 937 272 sel 10;
#X obj 1049 270 sel 11;
#X obj 1133 277 sel 12;
#X obj 642 414 nbx 5 14 -1e+37 1e+37 0 0 empty empty chann 0 -8 0 10
#000000 #00ff04 #00ff04 0 256;
#X obj 570 511 *~, f 5;
#X msg 585 480 1;
#X msg 618 480 0;
#X obj 630 515 *~, f 5;
#X msg 668 486 1;
#X msg 701 486 0;
#X obj 728 519 *~, f 5;
#X msg 766 490 1;
#X msg 799 490 0;
#X obj 823 524 *~, f 5;
#X msg 862 506 1;
#X msg 895 506 0;
#X obj 926 525 *~, f 5;
#X msg 965 507 1;
#X msg 998 507 0;
#X obj 1031 532 *~, f 5;
#X msg 1060 512 1;
#X msg 1093 512 0;
#X obj 1136 535 *~, f 5;
#X msg 1147 513 1;
#X msg 1180 513 0;
#X obj 1231 540 *~, f 5;
#X msg 1258 526 1;
#X msg 1291 526 0;
#X obj 1329 544 *~, f 5;
#X msg 1368 526 1;
#X msg 1401 526 0;
#X obj 1424 549 *~, f 5;
#X msg 1463 531 1;
#X msg 1496 531 0;
#X obj 1527 550 *~, f 5;
#X msg 1566 532 1;
#X msg 1599 532 0;
#X obj 1632 557 *~, f 5;
#X msg 1661 537 1;
#X msg 1694 537 0;
#X obj 913 129 adc~ ~13 14 15 16 17 18 19 20 21 22 23 24, f 57;
#X obj 418 602 *~ 1;
#X obj 587 456 sel 13;
#X obj 670 462 sel 14;
#X obj 768 466 sel 15;
#X obj 863 471 sel 16;
#X obj 967 472 sel 17;
#X obj 1062 477 sel 18;
#X obj 1148 478 sel 19;
#X obj 1265 481 sel 20;
#X obj 1364 483 sel 21;
#X obj 1464 485 sel 22;
#X obj 1564 504 sel 23;
#X obj 1661 502 sel 24;
#X connect 1 0 2 0;
#X connect 2 0 3 0;
#X connect 3 0 6 0;
#X connect 3 0 24 0;
#X connect 3 0 25 0;
#X connect 3 0 26 0;
#X connect 3 0 27 0;
#X connect 3 0 28 0;
#X connect 3 0 48 0;
#X connect 3 0 49 0;
#X connect 3 0 50 0;
#X connect 3 0 51 0;
#X connect 3 0 52 0;
#X connect 3 0 53 0;
#X connect 3 0 54 0;
#X connect 5 0 4 0;
#X connect 6 0 7 0;
#X connect 6 1 8 0;
#X connect 7 0 5 1;
#X connect 8 0 5 1;
#X connect 9 0 4 0;
#X connect 10 0 9 1;
#X connect 11 0 9 1;
#X connect 12 0 4 0;
#X connect 13 0 12 1;
#X connect 14 0 12 1;
#X connect 15 0 4 0;
#X connect 16 0 15 1;
#X connect 17 0 15 1;
#X connect 18 0 4 0;
#X connect 19 0 18 1;
#X connect 20 0 18 1;
#X connect 21 0 4 0;
#X connect 22 0 21 1;
#X connect 23 0 21 1;
#X connect 24 0 10 0;
#X connect 24 1 11 0;
#X connect 25 0 13 0;
#X connect 25 1 14 0;
#X connect 26 0 16 0;
#X connect 26 1 17 0;
#X connect 27 0 19 0;
#X connect 27 1 20 0;
#X connect 28 0 22 0;
#X connect 28 1 23 0;
#X connect 29 0 5 0;
#X connect 29 1 9 0;
#X connect 29 2 12 0;
#X connect 29 3 15 0;
#X connect 29 4 18 0;
#X connect 29 5 21 0;
#X connect 29 6 30 0;
#X connect 29 7 33 0;
#X connect 29 8 36 0;
#X connect 29 9 39 0;
#X connect 29 10 42 0;
#X connect 29 11 45 0;
#X connect 30 0 4 0;
#X connect 31 0 30 1;
#X connect 32 0 30 1;
#X connect 33 0 4 0;
#X connect 34 0 33 1;
#X connect 35 0 33 1;
#X connect 36 0 4 0;
#X connect 37 0 36 1;
#X connect 38 0 36 1;
#X connect 39 0 4 0;
#X connect 40 0 39 1;
#X connect 41 0 39 1;
#X connect 42 0 4 0;
#X connect 43 0 42 1;
#X connect 44 0 42 1;
#X connect 45 0 4 0;
#X connect 46 0 45 1;
#X connect 47 0 45 1;
#X connect 48 0 31 0;
#X connect 48 1 32 0;
#X connect 49 0 34 0;
#X connect 49 1 35 0;
#X connect 50 0 37 0;
#X connect 50 1 38 0;
#X connect 51 0 40 0;
#X connect 51 1 41 0;
#X connect 52 0 43 0;
#X connect 52 1 44 0;
#X connect 53 0 46 0;
#X connect 53 1 47 0;
#X connect 54 0 93 0;
#X connect 54 0 94 0;
#X connect 54 0 95 0;
#X connect 54 0 96 0;
#X connect 54 0 97 0;
#X connect 54 0 98 0;
#X connect 54 0 99 0;
#X connect 54 0 100 0;
#X connect 54 0 101 0;
#X connect 54 0 102 0;
#X connect 54 0 103 0;
#X connect 54 0 104 0;
#X connect 55 0 92 0;
#X connect 56 0 55 1;
#X connect 57 0 55 1;
#X connect 58 0 92 0;
#X connect 59 0 58 1;
#X connect 60 0 58 1;
#X connect 61 0 92 0;
#X connect 62 0 61 1;
#X connect 63 0 61 1;
#X connect 64 0 92 0;
#X connect 65 0 64 1;
#X connect 66 0 64 1;
#X connect 67 0 92 0;
#X connect 68 0 67 1;
#X connect 69 0 67 1;
#X connect 70 0 92 0;
#X connect 71 0 70 1;
#X connect 72 0 70 1;
#X connect 73 0 92 0;
#X connect 74 0 73 1;
#X connect 75 0 73 1;
#X connect 76 0 92 0;
#X connect 77 0 76 1;
#X connect 78 0 76 1;
#X connect 79 0 92 0;
#X connect 80 0 79 1;
#X connect 81 0 79 1;
#X connect 82 0 92 0;
#X connect 83 0 82 1;
#X connect 84 0 82 1;
#X connect 85 0 92 0;
#X connect 86 0 85 1;
#X connect 87 0 85 1;
#X connect 88 0 92 0;
#X connect 89 0 88 1;
#X connect 90 0 88 1;
#X connect 91 0 55 0;
#X connect 91 1 58 0;
#X connect 91 2 61 0;
#X connect 91 3 64 0;
#X connect 91 4 67 0;
#X connect 91 5 70 0;
#X connect 91 6 73 0;
#X connect 91 7 76 0;
#X connect 91 8 79 0;
#X connect 91 9 82 0;
#X connect 91 10 85 0;
#X connect 91 11 88 0;
#X connect 92 0 4 0;
#X connect 93 0 56 0;
#X connect 93 1 57 0;
#X connect 94 0 59 0;
#X connect 94 1 60 0;
#X connect 95 0 62 0;
#X connect 95 1 63 0;
#X connect 96 0 65 0;
#X connect 96 1 66 0;
#X connect 97 0 68 0;
#X connect 97 1 69 0;
#X connect 98 0 71 0;
#X connect 98 1 72 0;
#X connect 99 0 74 0;
#X connect 99 1 75 0;
#X connect 100 0 77 0;
#X connect 100 1 78 0;
#X connect 101 0 80 0;
#X connect 101 1 81 0;
#X connect 102 0 83 0;
#X connect 102 1 84 0;
#X connect 103 0 86 0;
#X connect 103 1 87 0;
#X connect 104 0 89 0;
#X connect 104 1 90 0;
#X coords 0 -1 1 1 85 60 2 100 100;
#X restore 432 42 pd selektr;
#N canvas 520 -722 848 513 Anlz 0;
#X obj 264 143 env~ 1024;
#X obj 266 188 line;
#X floatatom 321 101 5 0 0 0 - - - 0;
#X obj 348 255 / 22;
#X floatatom 337 165 5 0 0 0 - - - 0;
#X text 318 64 gain;
#X obj 116 122 hsl 64 15 10 300 0 0 empty empty smooth 0 6 0 10 #fcfcc4
#000000 #000000 0 1;
#X obj 116 104 hsl 64 15 0.5 1.5 0 0 empty empty gain 0 6 0 10 #fcfcc4
#000000 #000000 0 1;
#X floatatom 373 194 5 0 0 0 - - - 0;
#X obj 348 231 - 60;
#X obj 266 212 moses 60;
#X obj 264 80 *~ 1.13;
#X obj 264 101 *~ 1.13;
#X obj 270 300 * 100;
#X obj 269 324 int;
#X obj 269 347 change;
#X obj 268 371 / 100;
#X obj 115 141 hsl 64 15 0 128 0 0 empty empty resol 0 6 0 10 #fcfcc4
#000000 #000000 0 1;
#X obj 269 396 clip 0 1;
#X obj 264 164 pack 0 44;
#X obj 270 283 f;
#X msg 272 241 0;
#X obj 256 44 inlet~;
#X obj 438 158 r mtr;
#X obj 264 438 outlet;
#X connect 0 0 19 0;
#X connect 1 0 10 0;
#X connect 2 0 11 1;
#X connect 2 0 12 1;
#X connect 3 0 20 1;
#X connect 4 0 19 1;
#X connect 6 0 4 0;
#X connect 7 0 2 0;
#X connect 8 0 10 1;
#X connect 8 0 9 1;
#X connect 9 0 3 0;
#X connect 10 0 21 0;
#X connect 10 1 9 0;
#X connect 11 0 12 0;
#X connect 12 0 0 0;
#X connect 13 0 14 0;
#X connect 14 0 15 0;
#X connect 15 0 16 0;
#X connect 16 0 18 0;
#X connect 17 0 13 1;
#X connect 17 0 16 1;
#X connect 18 0 24 0;
#X connect 19 0 1 0;
#X connect 20 0 13 0;
#X connect 21 0 20 1;
#X connect 22 0 11 0;
#X connect 23 0 20 0;
#X coords 0 -1 1 1 85 60 2 100 100;
#X restore 432 109 pd Anlz;
#N canvas -110 -1018 1920 950 selektr 0;
#X obj 101 101 cnv 15 84 59 empty empty empty 20 12 0 14 #606060 #404040
0;
#X obj 114 42 loadbang;
#X msg 114 64 1;
#X obj 109 133 nbx 5 14 0 24 0 0 empty empty chann 0 -8 0 10 #000000
#00ff04 #00ff04 0 256;
#X obj 174 536 outlet~;
#X obj 42 287 *~, f 5;
#X obj 60 243 sel 1;
#X msg 58 267 1;
#X msg 91 267 0;
#X obj 102 291 *~, f 5;
#X msg 141 273 1;
#X msg 174 273 0;
#X obj 200 295 *~, f 5;
#X msg 239 277 1;
#X msg 272 277 0;
#X obj 295 300 *~, f 5;
#X msg 334 282 1;
#X msg 367 282 0;
#X obj 398 301 *~, f 5;
#X msg 437 283 1;
#X msg 470 283 0;
#X obj 503 308 *~, f 5;
#X msg 532 288 1;
#X msg 565 288 0;
#X obj 143 249 sel 2;
#X obj 241 253 sel 3;
#X obj 336 258 sel 4;
#X obj 439 259 sel 5;
#X obj 534 264 sel 6;
#X obj 502 127 adc~ 1 2 3 4 5 6 7 8 9 10 11 12, f 57;
#X obj 608 311 *~, f 5;
#X msg 619 289 1;
#X msg 652 289 0;
#X obj 703 316 *~, f 5;
#X msg 730 302 1;
#X msg 763 302 0;
#X obj 801 320 *~, f 5;
#X msg 840 302 1;
#X msg 873 302 0;
#X obj 896 325 *~, f 5;
#X msg 935 307 1;
#X msg 968 307 0;
#X obj 999 326 *~, f 5;
#X msg 1038 308 1;
#X msg 1071 308 0;
#X obj 1104 333 *~, f 5;
#X msg 1133 313 1;
#X msg 1166 313 0;
#X obj 621 265 sel 7;
#X obj 738 268 sel 8;
#X obj 837 270 sel 9;
#X obj 937 272 sel 10;
#X obj 1049 270 sel 11;
#X obj 1133 277 sel 12;
#X obj 642 414 nbx 5 14 -1e+37 1e+37 0 0 empty empty chann 0 -8 0 10
#000000 #00ff04 #00ff04 0 256;
#X obj 570 511 *~, f 5;
#X msg 585 480 1;
#X msg 618 480 0;
#X obj 630 515 *~, f 5;
#X msg 668 486 1;
#X msg 701 486 0;
#X obj 728 519 *~, f 5;
#X msg 766 490 1;
#X msg 799 490 0;
#X obj 823 524 *~, f 5;
#X msg 862 506 1;
#X msg 895 506 0;
#X obj 926 525 *~, f 5;
#X msg 965 507 1;
#X msg 998 507 0;
#X obj 1031 532 *~, f 5;
#X msg 1060 512 1;
#X msg 1093 512 0;
#X obj 1136 535 *~, f 5;
#X msg 1147 513 1;
#X msg 1180 513 0;
#X obj 1231 540 *~, f 5;
#X msg 1258 526 1;
#X msg 1291 526 0;
#X obj 1329 544 *~, f 5;
#X msg 1368 526 1;
#X msg 1401 526 0;
#X obj 1424 549 *~, f 5;
#X msg 1463 531 1;
#X msg 1496 531 0;
#X obj 1527 550 *~, f 5;
#X msg 1566 532 1;
#X msg 1599 532 0;
#X obj 1632 557 *~, f 5;
#X msg 1661 537 1;
#X msg 1694 537 0;
#X obj 913 129 adc~ ~13 14 15 16 17 18 19 20 21 22 23 24, f 57;
#X obj 418 602 *~ 1;
#X obj 587 456 sel 13;
#X obj 670 462 sel 14;
#X obj 768 466 sel 15;
#X obj 863 471 sel 16;
#X obj 967 472 sel 17;
#X obj 1062 477 sel 18;
#X obj 1148 478 sel 19;
#X obj 1265 481 sel 20;
#X obj 1364 483 sel 21;
#X obj 1464 485 sel 22;
#X obj 1564 504 sel 23;
#X obj 1661 502 sel 24;
#X connect 1 0 2 0;
#X connect 2 0 3 0;
#X connect 3 0 6 0;
#X connect 3 0 24 0;
#X connect 3 0 25 0;
#X connect 3 0 26 0;
#X connect 3 0 27 0;
#X connect 3 0 28 0;
#X connect 3 0 48 0;
#X connect 3 0 49 0;
#X connect 3 0 50 0;
#X connect 3 0 51 0;
#X connect 3 0 52 0;
#X connect 3 0 53 0;
#X connect 3 0 54 0;
#X connect 5 0 4 0;
#X connect 6 0 7 0;
#X connect 6 1 8 0;
#X connect 7 0 5 1;
#X connect 8 0 5 1;
#X connect 9 0 4 0;
#X connect 10 0 9 1;
#X connect 11 0 9 1;
#X connect 12 0 4 0;
#X connect 13 0 12 1;
#X connect 14 0 12 1;
#X connect 15 0 4 0;
#X connect 16 0 15 1;
#X connect 17 0 15 1;
#X connect 18 0 4 0;
#X connect 19 0 18 1;
#X connect 20 0 18 1;
#X connect 21 0 4 0;
#X connect 22 0 21 1;
#X connect 23 0 21 1;
#X connect 24 0 10 0;
#X connect 24 1 11 0;
#X connect 25 0 13 0;
#X connect 25 1 14 0;
#X connect 26 0 16 0;
#X connect 26 1 17 0;
#X connect 27 0 19 0;
#X connect 27 1 20 0;
#X connect 28 0 22 0;
#X connect 28 1 23 0;
#X connect 29 0 5 0;
#X connect 29 1 9 0;
#X connect 29 2 12 0;
#X connect 29 3 15 0;
#X connect 29 4 18 0;
#X connect 29 5 21 0;
#X connect 29 6 30 0;
#X connect 29 7 33 0;
#X connect 29 8 36 0;
#X connect 29 9 39 0;
#X connect 29 10 42 0;
#X connect 29 11 45 0;
#X connect 30 0 4 0;
#X connect 31 0 30 1;
#X connect 32 0 30 1;
#X connect 33 0 4 0;
#X connect 34 0 33 1;
#X connect 35 0 33 1;
#X connect 36 0 4 0;
#X connect 37 0 36 1;
#X connect 38 0 36 1;
#X connect 39 0 4 0;
#X connect 40 0 39 1;
#X connect 41 0 39 1;
#X connect 42 0 4 0;
#X connect 43 0 42 1;
#X connect 44 0 42 1;
#X connect 45 0 4 0;
#X connect 46 0 45 1;
#X connect 47 0 45 1;
#X connect 48 0 31 0;
#X connect 48 1 32 0;
#X connect 49 0 34 0;
#X connect 49 1 35 0;
#X connect 50 0 37 0;
#X connect 50 1 38 0;
#X connect 51 0 40 0;
#X connect 51 1 41 0;
#X connect 52 0 43 0;
#X connect 52 1 44 0;
#X connect 53 0 46 0;
#X connect 53 1 47 0;
#X connect 54 0 93 0;
#X connect 54 0 94 0;
#X connect 54 0 95 0;
#X connect 54 0 96 0;
#X connect 54 0 97 0;
#X connect 54 0 98 0;
#X connect 54 0 99 0;
#X connect 54 0 100 0;
#X connect 54 0 101 0;
#X connect 54 0 102 0;
#X connect 54 0 103 0;
#X connect 54 0 104 0;
#X connect 55 0 92 0;
#X connect 56 0 55 1;
#X connect 57 0 55 1;
#X connect 58 0 92 0;
#X connect 59 0 58 1;
#X connect 60 0 58 1;
#X connect 61 0 92 0;
#X connect 62 0 61 1;
#X connect 63 0 61 1;
#X connect 64 0 92 0;
#X connect 65 0 64 1;
#X connect 66 0 64 1;
#X connect 67 0 92 0;
#X connect 68 0 67 1;
#X connect 69 0 67 1;
#X connect 70 0 92 0;
#X connect 71 0 70 1;
#X connect 72 0 70 1;
#X connect 73 0 92 0;
#X connect 74 0 73 1;
#X connect 75 0 73 1;
#X connect 76 0 92 0;
#X connect 77 0 76 1;
#X connect 78 0 76 1;
#X connect 79 0 92 0;
#X connect 80 0 79 1;
#X connect 81 0 79 1;
#X connect 82 0 92 0;
#X connect 83 0 82 1;
#X connect 84 0 82 1;
#X connect 85 0 92 0;
#X connect 86 0 85 1;
#X connect 87 0 85 1;
#X connect 88 0 92 0;
#X connect 89 0 88 1;
#X connect 90 0 88 1;
#X connect 91 0 55 0;
#X connect 91 1 58 0;
#X connect 91 2 61 0;
#X connect 91 3 64 0;
#X connect 91 4 67 0;
#X connect 91 5 70 0;
#X connect 91 6 73 0;
#X connect 91 7 76 0;
#X connect 91 8 79 0;
#X connect 91 9 82 0;
#X connect 91 10 85 0;
#X connect 91 11 88 0;
#X connect 92 0 4 0;
#X connect 93 0 56 0;
#X connect 93 1 57 0;
#X connect 94 0 59 0;
#X connect 94 1 60 0;
#X connect 95 0 62 0;
#X connect 95 1 63 0;
#X connect 96 0 65 0;
#X connect 96 1 66 0;
#X connect 97 0 68 0;
#X connect 97 1 69 0;
#X connect 98 0 71 0;
#X connect 98 1 72 0;
#X connect 99 0 74 0;
#X connect 99 1 75 0;
#X connect 100 0 77 0;
#X connect 100 1 78 0;
#X connect 101 0 80 0;
#X connect 101 1 81 0;
#X connect 102 0 83 0;
#X connect 102 1 84 0;
#X connect 103 0 86 0;
#X connect 103 1 87 0;
#X connect 104 0 89 0;
#X connect 104 1 90 0;
#X coords 0 -1 1 1 85 60 2 100 100;
#X restore 525 42 pd selektr;
#N canvas 520 -722 848 513 Anlz 0;
#X obj 264 143 env~ 1024;
#X obj 266 188 line;
#X floatatom 321 101 5 0 0 0 - - - 0;
#X obj 348 255 / 22;
#X floatatom 337 165 5 0 0 0 - - - 0;
#X text 318 64 gain;
#X obj 116 122 hsl 64 15 10 300 0 0 empty empty smooth 0 6 0 10 #fcfcc4
#000000 #000000 0 1;
#X obj 116 104 hsl 64 15 0.5 1.5 0 0 empty empty gain 0 6 0 10 #fcfcc4
#000000 #000000 0 1;
#X floatatom 373 194 5 0 0 0 - - - 0;
#X obj 348 231 - 60;
#X obj 266 212 moses 60;
#X obj 264 80 *~ 1.13;
#X obj 264 101 *~ 1.13;
#X obj 270 300 * 100;
#X obj 269 324 int;
#X obj 269 347 change;
#X obj 268 371 / 100;
#X obj 115 141 hsl 64 15 0 128 0 0 empty empty resol 0 6 0 10 #fcfcc4
#000000 #000000 0 1;
#X obj 269 396 clip 0 1;
#X obj 264 164 pack 0 44;
#X obj 270 283 f;
#X msg 272 241 0;
#X obj 256 44 inlet~;
#X obj 438 158 r mtr;
#X obj 264 438 outlet;
#X connect 0 0 19 0;
#X connect 1 0 10 0;
#X connect 2 0 11 1;
#X connect 2 0 12 1;
#X connect 3 0 20 1;
#X connect 4 0 19 1;
#X connect 6 0 4 0;
#X connect 7 0 2 0;
#X connect 8 0 10 1;
#X connect 8 0 9 1;
#X connect 9 0 3 0;
#X connect 10 0 21 0;
#X connect 10 1 9 0;
#X connect 11 0 12 0;
#X connect 12 0 0 0;
#X connect 13 0 14 0;
#X connect 14 0 15 0;
#X connect 15 0 16 0;
#X connect 16 0 18 0;
#X connect 17 0 13 1;
#X connect 17 0 16 1;
#X connect 18 0 24 0;
#X connect 19 0 1 0;
#X connect 20 0 13 0;
#X connect 21 0 20 1;
#X connect 22 0 11 0;
#X connect 23 0 20 0;
#X coords 0 -1 1 1 85 60 2 100 100;
#X restore 525 109 pd Anlz;
#N canvas -110 -1018 1920 950 selektr 0;
#X obj 101 101 cnv 15 84 59 empty empty empty 20 12 0 14 #606060 #404040
0;
#X obj 114 42 loadbang;
#X msg 114 64 1;
#X obj 109 133 nbx 5 14 0 24 0 0 empty empty chann 0 -8 0 10 #000000
#00ff04 #00ff04 0 256;
#X obj 174 536 outlet~;
#X obj 42 287 *~, f 5;
#X obj 60 243 sel 1;
#X msg 58 267 1;
#X msg 91 267 0;
#X obj 102 291 *~, f 5;
#X msg 141 273 1;
#X msg 174 273 0;
#X obj 200 295 *~, f 5;
#X msg 239 277 1;
#X msg 272 277 0;
#X obj 295 300 *~, f 5;
#X msg 334 282 1;
#X msg 367 282 0;
#X obj 398 301 *~, f 5;
#X msg 437 283 1;
#X msg 470 283 0;
#X obj 503 308 *~, f 5;
#X msg 532 288 1;
#X msg 565 288 0;
#X obj 143 249 sel 2;
#X obj 241 253 sel 3;
#X obj 336 258 sel 4;
#X obj 439 259 sel 5;
#X obj 534 264 sel 6;
#X obj 502 127 adc~ 1 2 3 4 5 6 7 8 9 10 11 12, f 57;
#X obj 608 311 *~, f 5;
#X msg 619 289 1;
#X msg 652 289 0;
#X obj 703 316 *~, f 5;
#X msg 730 302 1;
#X msg 763 302 0;
#X obj 801 320 *~, f 5;
#X msg 840 302 1;
#X msg 873 302 0;
#X obj 896 325 *~, f 5;
#X msg 935 307 1;
#X msg 968 307 0;
#X obj 999 326 *~, f 5;
#X msg 1038 308 1;
#X msg 1071 308 0;
#X obj 1104 333 *~, f 5;
#X msg 1133 313 1;
#X msg 1166 313 0;
#X obj 621 265 sel 7;
#X obj 738 268 sel 8;
#X obj 837 270 sel 9;
#X obj 937 272 sel 10;
#X obj 1049 270 sel 11;
#X obj 1133 277 sel 12;
#X obj 642 414 nbx 5 14 -1e+37 1e+37 0 0 empty empty chann 0 -8 0 10
#000000 #00ff04 #00ff04 0 256;
#X obj 570 511 *~, f 5;
#X msg 585 480 1;
#X msg 618 480 0;
#X obj 630 515 *~, f 5;
#X msg 668 486 1;
#X msg 701 486 0;
#X obj 728 519 *~, f 5;
#X msg 766 490 1;
#X msg 799 490 0;
#X obj 823 524 *~, f 5;
#X msg 862 506 1;
#X msg 895 506 0;
#X obj 926 525 *~, f 5;
#X msg 965 507 1;
#X msg 998 507 0;
#X obj 1031 532 *~, f 5;
#X msg 1060 512 1;
#X msg 1093 512 0;
#X obj 1136 535 *~, f 5;
#X msg 1147 513 1;
#X msg 1180 513 0;
#X obj 1231 540 *~, f 5;
#X msg 1258 526 1;
#X msg 1291 526 0;
#X obj 1329 544 *~, f 5;
#X msg 1368 526 1;
#X msg 1401 526 0;
#X obj 1424 549 *~, f 5;
#X msg 1463 531 1;
#X msg 1496 531 0;
#X obj 1527 550 *~, f 5;
#X msg 1566 532 1;
#X msg 1599 532 0;
#X obj 1632 557 *~, f 5;
#X msg 1661 537 1;
#X msg 1694 537 0;
#X obj 913 129 adc~ ~13 14 15 16 17 18 19 20 21 22 23 24, f 57;
#X obj 418 602 *~ 1;
#X obj 587 456 sel 13;
#X obj 670 462 sel 14;
#X obj 768 466 sel 15;
#X obj 863 471 sel 16;
#X obj 967 472 sel 17;
#X obj 1062 477 sel 18;
#X obj 1148 478 sel 19;
#X obj 1265 481 sel 20;
#X obj 1364 483 sel 21;
#X obj 1464 485 sel 22;
#X obj 1564 504 sel 23;
#X obj 1661 502 sel 24;
#X connect 1 0 2 0;
#X connect 2 0 3 0;
#X connect 3 0 6 0;
#X connect 3 0 24 0;
#X connect 3 0 25 0;
#X connect 3 0 26 0;
#X connect 3 0 27 0;
#X connect 3 0 28 0;
#X connect 3 0 48 0;
#X connect 3 0 49 0;
#X connect 3 0 50 0;
#X connect 3 0 51 0;
#X connect 3 0 52 0;
#X connect 3 0 53 0;
#X connect 3 0 54 0;
#X connect 5 0 4 0;
#X connect 6 0 7 0;
#X connect 6 1 8 0;
#X connect 7 0 5 1;
#X connect 8 0 5 1;
#X connect 9 0 4 0;
#X connect 10 0 9 1;
#X connect 11 0 9 1;
#X connect 12 0 4 0;
#X connect 13 0 12 1;
#X connect 14 0 12 1;
#X connect 15 0 4 0;
#X connect 16 0 15 1;
#X connect 17 0 15 1;
#X connect 18 0 4 0;
#X connect 19 0 18 1;
#X connect 20 0 18 1;
#X connect 21 0 4 0;
#X connect 22 0 21 1;
#X connect 23 0 21 1;
#X connect 24 0 10 0;
#X connect 24 1 11 0;
#X connect 25 0 13 0;
#X connect 25 1 14 0;
#X connect 26 0 16 0;
#X connect 26 1 17 0;
#X connect 27 0 19 0;
#X connect 27 1 20 0;
#X connect 28 0 22 0;
#X connect 28 1 23 0;
#X connect 29 0 5 0;
#X connect 29 1 9 0;
#X connect 29 2 12 0;
#X connect 29 3 15 0;
#X connect 29 4 18 0;
#X connect 29 5 21 0;
#X connect 29 6 30 0;
#X connect 29 7 33 0;
#X connect 29 8 36 0;
#X connect 29 9 39 0;
#X connect 29 10 42 0;
#X connect 29 11 45 0;
#X connect 30 0 4 0;
#X connect 31 0 30 1;
#X connect 32 0 30 1;
#X connect 33 0 4 0;
#X connect 34 0 33 1;
#X connect 35 0 33 1;
#X connect 36 0 4 0;
#X connect 37 0 36 1;
#X connect 38 0 36 1;
#X connect 39 0 4 0;
#X connect 40 0 39 1;
#X connect 41 0 39 1;
#X connect 42 0 4 0;
#X connect 43 0 42 1;
#X connect 44 0 42 1;
#X connect 45 0 4 0;
#X connect 46 0 45 1;
#X connect 47 0 45 1;
#X connect 48 0 31 0;
#X connect 48 1 32 0;
#X connect 49 0 34 0;
#X connect 49 1 35 0;
#X connect 50 0 37 0;
#X connect 50 1 38 0;
#X connect 51 0 40 0;
#X connect 51 1 41 0;
#X connect 52 0 43 0;
#X connect 52 1 44 0;
#X connect 53 0 46 0;
#X connect 53 1 47 0;
#X connect 54 0 93 0;
#X connect 54 0 94 0;
#X connect 54 0 95 0;
#X connect 54 0 96 0;
#X connect 54 0 97 0;
#X connect 54 0 98 0;
#X connect 54 0 99 0;
#X connect 54 0 100 0;
#X connect 54 0 101 0;
#X connect 54 0 102 0;
#X connect 54 0 103 0;
#X connect 54 0 104 0;
#X connect 55 0 92 0;
#X connect 56 0 55 1;
#X connect 57 0 55 1;
#X connect 58 0 92 0;
#X connect 59 0 58 1;
#X connect 60 0 58 1;
#X connect 61 0 92 0;
#X connect 62 0 61 1;
#X connect 63 0 61 1;
#X connect 64 0 92 0;
#X connect 65 0 64 1;
#X connect 66 0 64 1;
#X connect 67 0 92 0;
#X connect 68 0 67 1;
#X connect 69 0 67 1;
#X connect 70 0 92 0;
#X connect 71 0 70 1;
#X connect 72 0 70 1;
#X connect 73 0 92 0;
#X connect 74 0 73 1;
#X connect 75 0 73 1;
#X connect 76 0 92 0;
#X connect 77 0 76 1;
#X connect 78 0 76 1;
#X connect 79 0 92 0;
#X connect 80 0 79 1;
#X connect 81 0 79 1;
#X connect 82 0 92 0;
#X connect 83 0 82 1;
#X connect 84 0 82 1;
#X connect 85 0 92 0;
#X connect 86 0 85 1;
#X connect 87 0 85 1;
#X connect 88 0 92 0;
#X connect 89 0 88 1;
#X connect 90 0 88 1;
#X connect 91 0 55 0;
#X connect 91 1 58 0;
#X connect 91 2 61 0;
#X connect 91 3 64 0;
#X connect 91 4 67 0;
#X connect 91 5 70 0;
#X connect 91 6 73 0;
#X connect 91 7 76 0;
#X connect 91 8 79 0;
#X connect 91 9 82 0;
#X connect 91 10 85 0;
#X connect 91 11 88 0;
#X connect 92 0 4 0;
#X connect 93 0 56 0;
#X connect 93 1 57 0;
#X connect 94 0 59 0;
#X connect 94 1 60 0;
#X connect 95 0 62 0;
#X connect 95 1 63 0;
#X connect 96 0 65 0;
#X connect 96 1 66 0;
#X connect 97 0 68 0;
#X connect 97 1 69 0;
#X connect 98 0 71 0;
#X connect 98 1 72 0;
#X connect 99 0 74 0;
#X connect 99 1 75 0;
#X connect 100 0 77 0;
#X connect 100 1 78 0;
#X connect 101 0 80 0;
#X connect 101 1 81 0;
#X connect 102 0 83 0;
#X connect 102 1 84 0;
#X connect 103 0 86 0;
#X connect 103 1 87 0;
#X connect 104 0 89 0;
#X connect 104 1 90 0;
#X coords 0 -1 1 1 85 60 2 100 100;
#X restore 617 42 pd selektr;
#N canvas 520 -722 848 513 Anlz 0;
#X obj 264 143 env~ 1024;
#X obj 266 188 line;
#X floatatom 321 101 5 0 0 0 - - - 0;
#X obj 348 255 / 22;
#X floatatom 337 165 5 0 0 0 - - - 0;
#X text 318 64 gain;
#X obj 116 122 hsl 64 15 10 300 0 0 empty empty smooth 0 6 0 10 #fcfcc4
#000000 #000000 0 1;
#X obj 116 104 hsl 64 15 0.5 1.5 0 0 empty empty gain 0 6 0 10 #fcfcc4
#000000 #000000 0 1;
#X floatatom 373 194 5 0 0 0 - - - 0;
#X obj 348 231 - 60;
#X obj 266 212 moses 60;
#X obj 264 80 *~ 1.13;
#X obj 264 101 *~ 1.13;
#X obj 270 300 * 100;
#X obj 269 324 int;
#X obj 269 347 change;
#X obj 268 371 / 100;
#X obj 115 141 hsl 64 15 0 128 0 0 empty empty resol 0 6 0 10 #fcfcc4
#000000 #000000 0 1;
#X obj 269 396 clip 0 1;
#X obj 264 164 pack 0 44;
#X obj 270 283 f;
#X msg 272 241 0;
#X obj 256 44 inlet~;
#X obj 438 158 r mtr;
#X obj 264 438 outlet;
#X connect 0 0 19 0;
#X connect 1 0 10 0;
#X connect 2 0 11 1;
#X connect 2 0 12 1;
#X connect 3 0 20 1;
#X connect 4 0 19 1;
#X connect 6 0 4 0;
#X connect 7 0 2 0;
#X connect 8 0 10 1;
#X connect 8 0 9 1;
#X connect 9 0 3 0;
#X connect 10 0 21 0;
#X connect 10 1 9 0;
#X connect 11 0 12 0;
#X connect 12 0 0 0;
#X connect 13 0 14 0;
#X connect 14 0 15 0;
#X connect 15 0 16 0;
#X connect 16 0 18 0;
#X connect 17 0 13 1;
#X connect 17 0 16 1;
#X connect 18 0 24 0;
#X connect 19 0 1 0;
#X connect 20 0 13 0;
#X connect 21 0 20 1;
#X connect 22 0 11 0;
#X connect 23 0 20 0;
#X coords 0 -1 1 1 85 60 2 100 100;
#X restore 617 109 pd Anlz;
#N canvas -110 -1018 1920 950 selektr 0;
#X obj 101 101 cnv 15 84 59 empty empty empty 20 12 0 14 #606060 #404040
0;
#X obj 114 42 loadbang;
#X msg 114 64 1;
#X obj 109 133 nbx 5 14 0 24 0 0 empty empty chann 0 -8 0 10 #000000
#00ff04 #00ff04 0 256;
#X obj 174 536 outlet~;
#X obj 42 287 *~, f 5;
#X obj 60 243 sel 1;
#X msg 58 267 1;
#X msg 91 267 0;
#X obj 102 291 *~, f 5;
#X msg 141 273 1;
#X msg 174 273 0;
#X obj 200 295 *~, f 5;
#X msg 239 277 1;
#X msg 272 277 0;
#X obj 295 300 *~, f 5;
#X msg 334 282 1;
#X msg 367 282 0;
#X obj 398 301 *~, f 5;
#X msg 437 283 1;
#X msg 470 283 0;
#X obj 503 308 *~, f 5;
#X msg 532 288 1;
#X msg 565 288 0;
#X obj 143 249 sel 2;
#X obj 241 253 sel 3;
#X obj 336 258 sel 4;
#X obj 439 259 sel 5;
#X obj 534 264 sel 6;
#X obj 502 127 adc~ 1 2 3 4 5 6 7 8 9 10 11 12, f 57;
#X obj 608 311 *~, f 5;
#X msg 619 289 1;
#X msg 652 289 0;
#X obj 703 316 *~, f 5;
#X msg 730 302 1;
#X msg 763 302 0;
#X obj 801 320 *~, f 5;
#X msg 840 302 1;
#X msg 873 302 0;
#X obj 896 325 *~, f 5;
#X msg 935 307 1;
#X msg 968 307 0;
#X obj 999 326 *~, f 5;
#X msg 1038 308 1;
#X msg 1071 308 0;
#X obj 1104 333 *~, f 5;
#X msg 1133 313 1;
#X msg 1166 313 0;
#X obj 621 265 sel 7;
#X obj 738 268 sel 8;
#X obj 837 270 sel 9;
#X obj 937 272 sel 10;
#X obj 1049 270 sel 11;
#X obj 1133 277 sel 12;
#X obj 642 414 nbx 5 14 -1e+37 1e+37 0 0 empty empty chann 0 -8 0 10
#000000 #00ff04 #00ff04 0 256;
#X obj 570 511 *~, f 5;
#X msg 585 480 1;
#X msg 618 480 0;
#X obj 630 515 *~, f 5;
#X msg 668 486 1;
#X msg 701 486 0;
#X obj 728 519 *~, f 5;
#X msg 766 490 1;
#X msg 799 490 0;
#X obj 823 524 *~, f 5;
#X msg 862 506 1;
#X msg 895 506 0;
#X obj 926 525 *~, f 5;
#X msg 965 507 1;
#X msg 998 507 0;
#X obj 1031 532 *~, f 5;
#X msg 1060 512 1;
#X msg 1093 512 0;
#X obj 1136 535 *~, f 5;
#X msg 1147 513 1;
#X msg 1180 513 0;
#X obj 1231 540 *~, f 5;
#X msg 1258 526 1;
#X msg 1291 526 0;
#X obj 1329 544 *~, f 5;
#X msg 1368 526 1;
#X msg 1401 526 0;
#X obj 1424 549 *~, f 5;
#X msg 1463 531 1;
#X msg 1496 531 0;
#X obj 1527 550 *~, f 5;
#X msg 1566 532 1;
#X msg 1599 532 0;
#X obj 1632 557 *~, f 5;
#X msg 1661 537 1;
#X msg 1694 537 0;
#X obj 913 129 adc~ ~13 14 15 16 17 18 19 20 21 22 23 24, f 57;
#X obj 418 602 *~ 1;
#X obj 587 456 sel 13;
#X obj 670 462 sel 14;
#X obj 768 466 sel 15;
#X obj 863 471 sel 16;
#X obj 967 472 sel 17;
#X obj 1062 477 sel 18;
#X obj 1148 478 sel 19;
#X obj 1265 481 sel 20;
#X obj 1364 483 sel 21;
#X obj 1464 485 sel 22;
#X obj 1564 504 sel 23;
#X obj 1661 502 sel 24;
#X connect 1 0 2 0;
#X connect 2 0 3 0;
#X connect 3 0 6 0;
#X connect 3 0 24 0;
#X connect 3 0 25 0;
#X connect 3 0 26 0;
#X connect 3 0 27 0;
#X connect 3 0 28 0;
#X connect 3 0 48 0;
#X connect 3 0 49 0;
#X connect 3 0 50 0;
#X connect 3 0 51 0;
#X connect 3 0 52 0;
#X connect 3 0 53 0;
#X connect 3 0 54 0;
#X connect 5 0 4 0;
#X connect 6 0 7 0;
#X connect 6 1 8 0;
#X connect 7 0 5 1;
#X connect 8 0 5 1;
#X connect 9 0 4 0;
#X connect 10 0 9 1;
#X connect 11 0 9 1;
#X connect 12 0 4 0;
#X connect 13 0 12 1;
#X connect 14 0 12 1;
#X connect 15 0 4 0;
#X connect 16 0 15 1;
#X connect 17 0 15 1;
#X connect 18 0 4 0;
#X connect 19 0 18 1;
#X connect 20 0 18 1;
#X connect 21 0 4 0;
#X connect 22 0 21 1;
#X connect 23 0 21 1;
#X connect 24 0 10 0;
#X connect 24 1 11 0;
#X connect 25 0 13 0;
#X connect 25 1 14 0;
#X connect 26 0 16 0;
#X connect 26 1 17 0;
#X connect 27 0 19 0;
#X connect 27 1 20 0;
#X connect 28 0 22 0;
#X connect 28 1 23 0;
#X connect 29 0 5 0;
#X connect 29 1 9 0;
#X connect 29 2 12 0;
#X connect 29 3 15 0;
#X connect 29 4 18 0;
#X connect 29 5 21 0;
#X connect 29 6 30 0;
#X connect 29 7 33 0;
#X connect 29 8 36 0;
#X connect 29 9 39 0;
#X connect 29 10 42 0;
#X connect 29 11 45 0;
#X connect 30 0 4 0;
#X connect 31 0 30 1;
#X connect 32 0 30 1;
#X connect 33 0 4 0;
#X connect 34 0 33 1;
#X connect 35 0 33 1;
#X connect 36 0 4 0;
#X connect 37 0 36 1;
#X connect 38 0 36 1;
#X connect 39 0 4 0;
#X connect 40 0 39 1;
#X connect 41 0 39 1;
#X connect 42 0 4 0;
#X connect 43 0 42 1;
#X connect 44 0 42 1;
#X connect 45 0 4 0;
#X connect 46 0 45 1;
#X connect 47 0 45 1;
#X connect 48 0 31 0;
#X connect 48 1 32 0;
#X connect 49 0 34 0;
#X connect 49 1 35 0;
#X connect 50 0 37 0;
#X connect 50 1 38 0;
#X connect 51 0 40 0;
#X connect 51 1 41 0;
#X connect 52 0 43 0;
#X connect 52 1 44 0;
#X connect 53 0 46 0;
#X connect 53 1 47 0;
#X connect 54 0 93 0;
#X connect 54 0 94 0;
#X connect 54 0 95 0;
#X connect 54 0 96 0;
#X connect 54 0 97 0;
#X connect 54 0 98 0;
#X connect 54 0 99 0;
#X connect 54 0 100 0;
#X connect 54 0 101 0;
#X connect 54 0 102 0;
#X connect 54 0 103 0;
#X connect 54 0 104 0;
#X connect 55 0 92 0;
#X connect 56 0 55 1;
#X connect 57 0 55 1;
#X connect 58 0 92 0;
#X connect 59 0 58 1;
#X connect 60 0 58 1;
#X connect 61 0 92 0;
#X connect 62 0 61 1;
#X connect 63 0 61 1;
#X connect 64 0 92 0;
#X connect 65 0 64 1;
#X connect 66 0 64 1;
#X connect 67 0 92 0;
#X connect 68 0 67 1;
#X connect 69 0 67 1;
#X connect 70 0 92 0;
#X connect 71 0 70 1;
#X connect 72 0 70 1;
#X connect 73 0 92 0;
#X connect 74 0 73 1;
#X connect 75 0 73 1;
#X connect 76 0 92 0;
#X connect 77 0 76 1;
#X connect 78 0 76 1;
#X connect 79 0 92 0;
#X connect 80 0 79 1;
#X connect 81 0 79 1;
#X connect 82 0 92 0;
#X connect 83 0 82 1;
#X connect 84 0 82 1;
#X connect 85 0 92 0;
#X connect 86 0 85 1;
#X connect 87 0 85 1;
#X connect 88 0 92 0;
#X connect 89 0 88 1;
#X connect 90 0 88 1;
#X connect 91 0 55 0;
#X connect 91 1 58 0;
#X connect 91 2 61 0;
#X connect 91 3 64 0;
#X connect 91 4 67 0;
#X connect 91 5 70 0;
#X connect 91 6 73 0;
#X connect 91 7 76 0;
#X connect 91 8 79 0;
#X connect 91 9 82 0;
#X connect 91 10 85 0;
#X connect 91 11 88 0;
#X connect 92 0 4 0;
#X connect 93 0 56 0;
#X connect 93 1 57 0;
#X connect 94 0 59 0;
#X connect 94 1 60 0;
#X connect 95 0 62 0;
#X connect 95 1 63 0;
#X connect 96 0 65 0;
#X connect 96 1 66 0;
#X connect 97 0 68 0;
#X connect 97 1 69 0;
#X connect 98 0 71 0;
#X connect 98 1 72 0;
#X connect 99 0 74 0;
#X connect 99 1 75 0;
#X connect 100 0 77 0;
#X connect 100 1 78 0;
#X connect 101 0 80 0;
#X connect 101 1 81 0;
#X connect 102 0 83 0;
#X connect 102 1 84 0;
#X connect 103 0 86 0;
#X connect 103 1 87 0;
#X connect 104 0 89 0;
#X connect 104 1 90 0;
#X coords 0 -1 1 1 85 60 2 100 100;
#X restore 709 42 pd selektr;
#N canvas 520 -722 848 513 Anlz 0;
#X obj 264 143 env~ 1024;
#X obj 266 188 line;
#X floatatom 321 101 5 0 0 0 - - - 0;
#X obj 348 255 / 22;
#X floatatom 337 165 5 0 0 0 - - - 0;
#X text 318 64 gain;
#X obj 116 122 hsl 64 15 10 300 0 0 empty empty smooth 0 6 0 10 #fcfcc4
#000000 #000000 0 1;
#X obj 116 104 hsl 64 15 0.5 1.5 0 0 empty empty gain 0 6 0 10 #fcfcc4
#000000 #000000 0 1;
#X floatatom 373 194 5 0 0 0 - - - 0;
#X obj 348 231 - 60;
#X obj 266 212 moses 60;
#X obj 264 80 *~ 1.13;
#X obj 264 101 *~ 1.13;
#X obj 270 300 * 100;
#X obj 269 324 int;
#X obj 269 347 change;
#X obj 268 371 / 100;
#X obj 115 141 hsl 64 15 0 128 0 0 empty empty resol 0 6 0 10 #fcfcc4
#000000 #000000 0 1;
#X obj 269 396 clip 0 1;
#X obj 264 164 pack 0 44;
#X obj 270 283 f;
#X msg 272 241 0;
#X obj 256 44 inlet~;
#X obj 438 158 r mtr;
#X obj 264 438 outlet;
#X connect 0 0 19 0;
#X connect 1 0 10 0;
#X connect 2 0 11 1;
#X connect 2 0 12 1;
#X connect 3 0 20 1;
#X connect 4 0 19 1;
#X connect 6 0 4 0;
#X connect 7 0 2 0;
#X connect 8 0 10 1;
#X connect 8 0 9 1;
#X connect 9 0 3 0;
#X connect 10 0 21 0;
#X connect 10 1 9 0;
#X connect 11 0 12 0;
#X connect 12 0 0 0;
#X connect 13 0 14 0;
#X connect 14 0 15 0;
#X connect 15 0 16 0;
#X connect 16 0 18 0;
#X connect 17 0 13 1;
#X connect 17 0 16 1;
#X connect 18 0 24 0;
#X connect 19 0 1 0;
#X connect 20 0 13 0;
#X connect 21 0 20 1;
#X connect 22 0 11 0;
#X connect 23 0 20 0;
#X coords 0 -1 1 1 85 60 2 100 100;
#X restore 709 109 pd Anlz;
#X obj 124 225 hsl 64 15 0 1 0 0 empty empty empty -2 -8 0 10 #fcfcfc
#000000 #000000 0 1;
#X obj 121 203 spigot 1, f 9;
#X obj 205 422 r ldb;
#X obj 1740 261 s ldb;
#X obj 222 224 hsl 64 15 0 1 0 0 empty empty empty -2 -8 0 10 #fcfcfc
#000000 #000000 0 1;
#X obj 219 202 spigot 1, f 9;
#X obj 310 225 hsl 64 15 0 1 0 0 empty empty empty -2 -8 0 10 #fcfcfc
#000000 #000000 0 1;
#X obj 307 203 spigot 1, f 9;
#X obj 439 221 hsl 64 15 0 1 0 0 empty empty empty -2 -8 0 10 #fcfcfc
#000000 #000000 0 1;
#X obj 436 199 spigot 1, f 9;
#X obj 527 222 hsl 64 15 0 1 0 0 empty empty empty -2 -8 0 10 #fcfcfc
#000000 #000000 0 1;
#X obj 524 200 spigot 1, f 9;
#X obj 624 221 hsl 64 15 0 1 0 0 empty empty empty -2 -8 0 10 #fcfcfc
#000000 #000000 0 1;
#X obj 621 199 spigot 1, f 9;
#X obj 712 222 hsl 64 15 0 1 0 0 empty empty empty -2 -8 0 10 #fcfcfc
#000000 #000000 0 1;
#X obj 709 200 spigot 1, f 9;
#X obj 510 318 * 127;
#X obj 510 339 int;
#X obj 626 321 * 127;
#X obj 626 342 int;
#X obj 708 321 * 127;
#X obj 708 342 int;
#N canvas -110 -1018 1920 950 selektr 0;
#X obj 101 101 cnv 15 84 59 empty empty empty 20 12 0 14 #606060 #404040
0;
#X obj 114 42 loadbang;
#X msg 114 64 1;
#X obj 109 133 nbx 5 14 0 24 0 0 empty empty chann 0 -8 0 10 #000000
#00ff04 #00ff04 0 256;
#X obj 174 536 outlet~;
#X obj 42 287 *~, f 5;
#X obj 60 243 sel 1;
#X msg 58 267 1;
#X msg 91 267 0;
#X obj 102 291 *~, f 5;
#X msg 141 273 1;
#X msg 174 273 0;
#X obj 200 295 *~, f 5;
#X msg 239 277 1;
#X msg 272 277 0;
#X obj 295 300 *~, f 5;
#X msg 334 282 1;
#X msg 367 282 0;
#X obj 398 301 *~, f 5;
#X msg 437 283 1;
#X msg 470 283 0;
#X obj 503 308 *~, f 5;
#X msg 532 288 1;
#X msg 565 288 0;
#X obj 143 249 sel 2;
#X obj 241 253 sel 3;
#X obj 336 258 sel 4;
#X obj 439 259 sel 5;
#X obj 534 264 sel 6;
#X obj 502 127 adc~ 1 2 3 4 5 6 7 8 9 10 11 12, f 57;
#X obj 608 311 *~, f 5;
#X msg 619 289 1;
#X msg 652 289 0;
#X obj 703 316 *~, f 5;
#X msg 730 302 1;
#X msg 763 302 0;
#X obj 801 320 *~, f 5;
#X msg 840 302 1;
#X msg 873 302 0;
#X obj 896 325 *~, f 5;
#X msg 935 307 1;
#X msg 968 307 0;
#X obj 999 326 *~, f 5;
#X msg 1038 308 1;
#X msg 1071 308 0;
#X obj 1104 333 *~, f 5;
#X msg 1133 313 1;
#X msg 1166 313 0;
#X obj 621 265 sel 7;
#X obj 738 268 sel 8;
#X obj 837 270 sel 9;
#X obj 937 272 sel 10;
#X obj 1049 270 sel 11;
#X obj 1133 277 sel 12;
#X obj 642 414 nbx 5 14 -1e+37 1e+37 0 0 empty empty chann 0 -8 0 10
#000000 #00ff04 #00ff04 0 256;
#X obj 570 511 *~, f 5;
#X msg 585 480 1;
#X msg 618 480 0;
#X obj 630 515 *~, f 5;
#X msg 668 486 1;
#X msg 701 486 0;
#X obj 728 519 *~, f 5;
#X msg 766 490 1;
#X msg 799 490 0;
#X obj 823 524 *~, f 5;
#X msg 862 506 1;
#X msg 895 506 0;
#X obj 926 525 *~, f 5;
#X msg 965 507 1;
#X msg 998 507 0;
#X obj 1031 532 *~, f 5;
#X msg 1060 512 1;
#X msg 1093 512 0;
#X obj 1136 535 *~, f 5;
#X msg 1147 513 1;
#X msg 1180 513 0;
#X obj 1231 540 *~, f 5;
#X msg 1258 526 1;
#X msg 1291 526 0;
#X obj 1329 544 *~, f 5;
#X msg 1368 526 1;
#X msg 1401 526 0;
#X obj 1424 549 *~, f 5;
#X msg 1463 531 1;
#X msg 1496 531 0;
#X obj 1527 550 *~, f 5;
#X msg 1566 532 1;
#X msg 1599 532 0;
#X obj 1632 557 *~, f 5;
#X msg 1661 537 1;
#X msg 1694 537 0;
#X obj 913 129 adc~ ~13 14 15 16 17 18 19 20 21 22 23 24, f 57;
#X obj 418 602 *~ 1;
#X obj 587 456 sel 13;
#X obj 670 462 sel 14;
#X obj 768 466 sel 15;
#X obj 863 471 sel 16;
#X obj 967 472 sel 17;
#X obj 1062 477 sel 18;
#X obj 1148 478 sel 19;
#X obj 1265 481 sel 20;
#X obj 1364 483 sel 21;
#X obj 1464 485 sel 22;
#X obj 1564 504 sel 23;
#X obj 1661 502 sel 24;
#X connect 1 0 2 0;
#X connect 2 0 3 0;
#X connect 3 0 6 0;
#X connect 3 0 24 0;
#X connect 3 0 25 0;
#X connect 3 0 26 0;
#X connect 3 0 27 0;
#X connect 3 0 28 0;
#X connect 3 0 48 0;
#X connect 3 0 49 0;
#X connect 3 0 50 0;
#X connect 3 0 51 0;
#X connect 3 0 52 0;
#X connect 3 0 53 0;
#X connect 3 0 54 0;
#X connect 5 0 4 0;
#X connect 6 0 7 0;
#X connect 6 1 8 0;
#X connect 7 0 5 1;
#X connect 8 0 5 1;
#X connect 9 0 4 0;
#X connect 10 0 9 1;
#X connect 11 0 9 1;
#X connect 12 0 4 0;
#X connect 13 0 12 1;
#X connect 14 0 12 1;
#X connect 15 0 4 0;
#X connect 16 0 15 1;
#X connect 17 0 15 1;
#X connect 18 0 4 0;
#X connect 19 0 18 1;
#X connect 20 0 18 1;
#X connect 21 0 4 0;
#X connect 22 0 21 1;
#X connect 23 0 21 1;
#X connect 24 0 10 0;
#X connect 24 1 11 0;
#X connect 25 0 13 0;
#X connect 25 1 14 0;
#X connect 26 0 16 0;
#X connect 26 1 17 0;
#X connect 27 0 19 0;
#X connect 27 1 20 0;
#X connect 28 0 22 0;
#X connect 28 1 23 0;
#X connect 29 0 5 0;
#X connect 29 1 9 0;
#X connect 29 2 12 0;
#X connect 29 3 15 0;
#X connect 29 4 18 0;
#X connect 29 5 21 0;
#X connect 29 6 30 0;
#X connect 29 7 33 0;
#X connect 29 8 36 0;
#X connect 29 9 39 0;
#X connect 29 10 42 0;
#X connect 29 11 45 0;
#X connect 30 0 4 0;
#X connect 31 0 30 1;
#X connect 32 0 30 1;
#X connect 33 0 4 0;
#X connect 34 0 33 1;
#X connect 35 0 33 1;
#X connect 36 0 4 0;
#X connect 37 0 36 1;
#X connect 38 0 36 1;
#X connect 39 0 4 0;
#X connect 40 0 39 1;
#X connect 41 0 39 1;
#X connect 42 0 4 0;
#X connect 43 0 42 1;
#X connect 44 0 42 1;
#X connect 45 0 4 0;
#X connect 46 0 45 1;
#X connect 47 0 45 1;
#X connect 48 0 31 0;
#X connect 48 1 32 0;
#X connect 49 0 34 0;
#X connect 49 1 35 0;
#X connect 50 0 37 0;
#X connect 50 1 38 0;
#X connect 51 0 40 0;
#X connect 51 1 41 0;
#X connect 52 0 43 0;
#X connect 52 1 44 0;
#X connect 53 0 46 0;
#X connect 53 1 47 0;
#X connect 54 0 93 0;
#X connect 54 0 94 0;
#X connect 54 0 95 0;
#X connect 54 0 96 0;
#X connect 54 0 97 0;
#X connect 54 0 98 0;
#X connect 54 0 99 0;
#X connect 54 0 100 0;
#X connect 54 0 101 0;
#X connect 54 0 102 0;
#X connect 54 0 103 0;
#X connect 54 0 104 0;
#X connect 55 0 92 0;
#X connect 56 0 55 1;
#X connect 57 0 55 1;
#X connect 58 0 92 0;
#X connect 59 0 58 1;
#X connect 60 0 58 1;
#X connect 61 0 92 0;
#X connect 62 0 61 1;
#X connect 63 0 61 1;
#X connect 64 0 92 0;
#X connect 65 0 64 1;
#X connect 66 0 64 1;
#X connect 67 0 92 0;
#X connect 68 0 67 1;
#X connect 69 0 67 1;
#X connect 70 0 92 0;
#X connect 71 0 70 1;
#X connect 72 0 70 1;
#X connect 73 0 92 0;
#X connect 74 0 73 1;
#X connect 75 0 73 1;
#X connect 76 0 92 0;
#X connect 77 0 76 1;
#X connect 78 0 76 1;
#X connect 79 0 92 0;
#X connect 80 0 79 1;
#X connect 81 0 79 1;
#X connect 82 0 92 0;
#X connect 83 0 82 1;
#X connect 84 0 82 1;
#X connect 85 0 92 0;
#X connect 86 0 85 1;
#X connect 87 0 85 1;
#X connect 88 0 92 0;
#X connect 89 0 88 1;
#X connect 90 0 88 1;
#X connect 91 0 55 0;
#X connect 91 1 58 0;
#X connect 91 2 61 0;
#X connect 91 3 64 0;
#X connect 91 4 67 0;
#X connect 91 5 70 0;
#X connect 91 6 73 0;
#X connect 91 7 76 0;
#X connect 91 8 79 0;
#X connect 91 9 82 0;
#X connect 91 10 85 0;
#X connect 91 11 88 0;
#X connect 92 0 4 0;
#X connect 93 0 56 0;
#X connect 93 1 57 0;
#X connect 94 0 59 0;
#X connect 94 1 60 0;
#X connect 95 0 62 0;
#X connect 95 1 63 0;
#X connect 96 0 65 0;
#X connect 96 1 66 0;
#X connect 97 0 68 0;
#X connect 97 1 69 0;
#X connect 98 0 71 0;
#X connect 98 1 72 0;
#X connect 99 0 74 0;
#X connect 99 1 75 0;
#X connect 100 0 77 0;
#X connect 100 1 78 0;
#X connect 101 0 80 0;
#X connect 101 1 81 0;
#X connect 102 0 83 0;
#X connect 102 1 84 0;
#X connect 103 0 86 0;
#X connect 103 1 87 0;
#X connect 104 0 89 0;
#X connect 104 1 90 0;
#X coords 0 -1 1 1 85 60 2 100 100;
#X restore 349 442 pd selektr;
#N canvas -110 -1018 1920 950 selektr 0;
#X obj 101 101 cnv 15 84 59 empty empty empty 20 12 0 14 #606060 #404040
0;
#X obj 114 42 loadbang;
#X msg 114 64 1;
#X obj 109 133 nbx 5 14 0 24 0 0 empty empty chann 0 -8 0 10 #000000
#00ff04 #00ff04 0 256;
#X obj 174 536 outlet~;
#X obj 42 287 *~, f 5;
#X obj 60 243 sel 1;
#X msg 58 267 1;
#X msg 91 267 0;
#X obj 102 291 *~, f 5;
#X msg 141 273 1;
#X msg 174 273 0;
#X obj 200 295 *~, f 5;
#X msg 239 277 1;
#X msg 272 277 0;
#X obj 295 300 *~, f 5;
#X msg 334 282 1;
#X msg 367 282 0;
#X obj 398 301 *~, f 5;
#X msg 437 283 1;
#X msg 470 283 0;
#X obj 503 308 *~, f 5;
#X msg 532 288 1;
#X msg 565 288 0;
#X obj 143 249 sel 2;
#X obj 241 253 sel 3;
#X obj 336 258 sel 4;
#X obj 439 259 sel 5;
#X obj 534 264 sel 6;
#X obj 502 127 adc~ 1 2 3 4 5 6 7 8 9 10 11 12, f 57;
#X obj 608 311 *~, f 5;
#X msg 619 289 1;
#X msg 652 289 0;
#X obj 703 316 *~, f 5;
#X msg 730 302 1;
#X msg 763 302 0;
#X obj 801 320 *~, f 5;
#X msg 840 302 1;
#X msg 873 302 0;
#X obj 896 325 *~, f 5;
#X msg 935 307 1;
#X msg 968 307 0;
#X obj 999 326 *~, f 5;
#X msg 1038 308 1;
#X msg 1071 308 0;
#X obj 1104 333 *~, f 5;
#X msg 1133 313 1;
#X msg 1166 313 0;
#X obj 621 265 sel 7;
#X obj 738 268 sel 8;
#X obj 837 270 sel 9;
#X obj 937 272 sel 10;
#X obj 1049 270 sel 11;
#X obj 1133 277 sel 12;
#X obj 642 414 nbx 5 14 -1e+37 1e+37 0 0 empty empty chann 0 -8 0 10
#000000 #00ff04 #00ff04 0 256;
#X obj 570 511 *~, f 5;
#X msg 585 480 1;
#X msg 618 480 0;
#X obj 630 515 *~, f 5;
#X msg 668 486 1;
#X msg 701 486 0;
#X obj 728 519 *~, f 5;
#X msg 766 490 1;
#X msg 799 490 0;
#X obj 823 524 *~, f 5;
#X msg 862 506 1;
#X msg 895 506 0;
#X obj 926 525 *~, f 5;
#X msg 965 507 1;
#X msg 998 507 0;
#X obj 1031 532 *~, f 5;
#X msg 1060 512 1;
#X msg 1093 512 0;
#X obj 1136 535 *~, f 5;
#X msg 1147 513 1;
#X msg 1180 513 0;
#X obj 1231 540 *~, f 5;
#X msg 1258 526 1;
#X msg 1291 526 0;
#X obj 1329 544 *~, f 5;
#X msg 1368 526 1;
#X msg 1401 526 0;
#X obj 1424 549 *~, f 5;
#X msg 1463 531 1;
#X msg 1496 531 0;
#X obj 1527 550 *~, f 5;
#X msg 1566 532 1;
#X msg 1599 532 0;
#X obj 1632 557 *~, f 5;
#X msg 1661 537 1;
#X msg 1694 537 0;
#X obj 913 129 adc~ ~13 14 15 16 17 18 19 20 21 22 23 24, f 57;
#X obj 418 602 *~ 1;
#X obj 587 456 sel 13;
#X obj 670 462 sel 14;
#X obj 768 466 sel 15;
#X obj 863 471 sel 16;
#X obj 967 472 sel 17;
#X obj 1062 477 sel 18;
#X obj 1148 478 sel 19;
#X obj 1265 481 sel 20;
#X obj 1364 483 sel 21;
#X obj 1464 485 sel 22;
#X obj 1564 504 sel 23;
#X obj 1661 502 sel 24;
#X connect 1 0 2 0;
#X connect 2 0 3 0;
#X connect 3 0 6 0;
#X connect 3 0 24 0;
#X connect 3 0 25 0;
#X connect 3 0 26 0;
#X connect 3 0 27 0;
#X connect 3 0 28 0;
#X connect 3 0 48 0;
#X connect 3 0 49 0;
#X connect 3 0 50 0;
#X connect 3 0 51 0;
#X connect 3 0 52 0;
#X connect 3 0 53 0;
#X connect 3 0 54 0;
#X connect 5 0 4 0;
#X connect 6 0 7 0;
#X connect 6 1 8 0;
#X connect 7 0 5 1;
#X connect 8 0 5 1;
#X connect 9 0 4 0;
#X connect 10 0 9 1;
#X connect 11 0 9 1;
#X connect 12 0 4 0;
#X connect 13 0 12 1;
#X connect 14 0 12 1;
#X connect 15 0 4 0;
#X connect 16 0 15 1;
#X connect 17 0 15 1;
#X connect 18 0 4 0;
#X connect 19 0 18 1;
#X connect 20 0 18 1;
#X connect 21 0 4 0;
#X connect 22 0 21 1;
#X connect 23 0 21 1;
#X connect 24 0 10 0;
#X connect 24 1 11 0;
#X connect 25 0 13 0;
#X connect 25 1 14 0;
#X connect 26 0 16 0;
#X connect 26 1 17 0;
#X connect 27 0 19 0;
#X connect 27 1 20 0;
#X connect 28 0 22 0;
#X connect 28 1 23 0;
#X connect 29 0 5 0;
#X connect 29 1 9 0;
#X connect 29 2 12 0;
#X connect 29 3 15 0;
#X connect 29 4 18 0;
#X connect 29 5 21 0;
#X connect 29 6 30 0;
#X connect 29 7 33 0;
#X connect 29 8 36 0;
#X connect 29 9 39 0;
#X connect 29 10 42 0;
#X connect 29 11 45 0;
#X connect 30 0 4 0;
#X connect 31 0 30 1;
#X connect 32 0 30 1;
#X connect 33 0 4 0;
#X connect 34 0 33 1;
#X connect 35 0 33 1;
#X connect 36 0 4 0;
#X connect 37 0 36 1;
#X connect 38 0 36 1;
#X connect 39 0 4 0;
#X connect 40 0 39 1;
#X connect 41 0 39 1;
#X connect 42 0 4 0;
#X connect 43 0 42 1;
#X connect 44 0 42 1;
#X connect 45 0 4 0;
#X connect 46 0 45 1;
#X connect 47 0 45 1;
#X connect 48 0 31 0;
#X connect 48 1 32 0;
#X connect 49 0 34 0;
#X connect 49 1 35 0;
#X connect 50 0 37 0;
#X connect 50 1 38 0;
#X connect 51 0 40 0;
#X connect 51 1 41 0;
#X connect 52 0 43 0;
#X connect 52 1 44 0;
#X connect 53 0 46 0;
#X connect 53 1 47 0;
#X connect 54 0 93 0;
#X connect 54 0 94 0;
#X connect 54 0 95 0;
#X connect 54 0 96 0;
#X connect 54 0 97 0;
#X connect 54 0 98 0;
#X connect 54 0 99 0;
#X connect 54 0 100 0;
#X connect 54 0 101 0;
#X connect 54 0 102 0;
#X connect 54 0 103 0;
#X connect 54 0 104 0;
#X connect 55 0 92 0;
#X connect 56 0 55 1;
#X connect 57 0 55 1;
#X connect 58 0 92 0;
#X connect 59 0 58 1;
#X connect 60 0 58 1;
#X connect 61 0 92 0;
#X connect 62 0 61 1;
#X connect 63 0 61 1;
#X connect 64 0 92 0;
#X connect 65 0 64 1;
#X connect 66 0 64 1;
#X connect 67 0 92 0;
#X connect 68 0 67 1;
#X connect 69 0 67 1;
#X connect 70 0 92 0;
#X connect 71 0 70 1;
#X connect 72 0 70 1;
#X connect 73 0 92 0;
#X connect 74 0 73 1;
#X connect 75 0 73 1;
#X connect 76 0 92 0;
#X connect 77 0 76 1;
#X connect 78 0 76 1;
#X connect 79 0 92 0;
#X connect 80 0 79 1;
#X connect 81 0 79 1;
#X connect 82 0 92 0;
#X connect 83 0 82 1;
#X connect 84 0 82 1;
#X connect 85 0 92 0;
#X connect 86 0 85 1;
#X connect 87 0 85 1;
#X connect 88 0 92 0;
#X connect 89 0 88 1;
#X connect 90 0 88 1;
#X connect 91 0 55 0;
#X connect 91 1 58 0;
#X connect 91 2 61 0;
#X connect 91 3 64 0;
#X connect 91 4 67 0;
#X connect 91 5 70 0;
#X connect 91 6 73 0;
#X connect 91 7 76 0;
#X connect 91 8 79 0;
#X connect 91 9 82 0;
#X connect 91 10 85 0;
#X connect 91 11 88 0;
#X connect 92 0 4 0;
#X connect 93 0 56 0;
#X connect 93 1 57 0;
#X connect 94 0 59 0;
#X connect 94 1 60 0;
#X connect 95 0 62 0;
#X connect 95 1 63 0;
#X connect 96 0 65 0;
#X connect 96 1 66 0;
#X connect 97 0 68 0;
#X connect 97 1 69 0;
#X connect 98 0 71 0;
#X connect 98 1 72 0;
#X connect 99 0 74 0;
#X connect 99 1 75 0;
#X connect 100 0 77 0;
#X connect 100 1 78 0;
#X connect 101 0 80 0;
#X connect 101 1 81 0;
#X connect 102 0 83 0;
#X connect 102 1 84 0;
#X connect 103 0 86 0;
#X connect 103 1 87 0;
#X connect 104 0 89 0;
#X connect 104 1 90 0;
#X coords 0 -1 1 1 85 60 2 100 100;
#X restore 487 442 pd selektr;
#N canvas -110 -1018 1920 950 selektr 0;
#X obj 101 101 cnv 15 84 59 empty empty empty 20 12 0 14 #606060 #404040
0;
#X obj 114 42 loadbang;
#X msg 114 64 1;
#X obj 109 133 nbx 5 14 0 24 0 0 empty empty chann 0 -8 0 10 #000000
#00ff04 #00ff04 0 256;
#X obj 174 536 outlet~;
#X obj 42 287 *~, f 5;
#X obj 60 243 sel 1;
#X msg 58 267 1;
#X msg 91 267 0;
#X obj 102 291 *~, f 5;
#X msg 141 273 1;
#X msg 174 273 0;
#X obj 200 295 *~, f 5;
#X msg 239 277 1;
#X msg 272 277 0;
#X obj 295 300 *~, f 5;
#X msg 334 282 1;
#X msg 367 282 0;
#X obj 398 301 *~, f 5;
#X msg 437 283 1;
#X msg 470 283 0;
#X obj 503 308 *~, f 5;
#X msg 532 288 1;
#X msg 565 288 0;
#X obj 143 249 sel 2;
#X obj 241 253 sel 3;
#X obj 336 258 sel 4;
#X obj 439 259 sel 5;
#X obj 534 264 sel 6;
#X obj 502 127 adc~ 1 2 3 4 5 6 7 8 9 10 11 12, f 57;
#X obj 608 311 *~, f 5;
#X msg 619 289 1;
#X msg 652 289 0;
#X obj 703 316 *~, f 5;
#X msg 730 302 1;
#X msg 763 302 0;
#X obj 801 320 *~, f 5;
#X msg 840 302 1;
#X msg 873 302 0;
#X obj 896 325 *~, f 5;
#X msg 935 307 1;
#X msg 968 307 0;
#X obj 999 326 *~, f 5;
#X msg 1038 308 1;
#X msg 1071 308 0;
#X obj 1104 333 *~, f 5;
#X msg 1133 313 1;
#X msg 1166 313 0;
#X obj 621 265 sel 7;
#X obj 738 268 sel 8;
#X obj 837 270 sel 9;
#X obj 937 272 sel 10;
#X obj 1049 270 sel 11;
#X obj 1133 277 sel 12;
#X obj 642 414 nbx 5 14 -1e+37 1e+37 0 0 empty empty chann 0 -8 0 10
#000000 #00ff04 #00ff04 0 256;
#X obj 570 511 *~, f 5;
#X msg 585 480 1;
#X msg 618 480 0;
#X obj 630 515 *~, f 5;
#X msg 668 486 1;
#X msg 701 486 0;
#X obj 728 519 *~, f 5;
#X msg 766 490 1;
#X msg 799 490 0;
#X obj 823 524 *~, f 5;
#X msg 862 506 1;
#X msg 895 506 0;
#X obj 926 525 *~, f 5;
#X msg 965 507 1;
#X msg 998 507 0;
#X obj 1031 532 *~, f 5;
#X msg 1060 512 1;
#X msg 1093 512 0;
#X obj 1136 535 *~, f 5;
#X msg 1147 513 1;
#X msg 1180 513 0;
#X obj 1231 540 *~, f 5;
#X msg 1258 526 1;
#X msg 1291 526 0;
#X obj 1329 544 *~, f 5;
#X msg 1368 526 1;
#X msg 1401 526 0;
#X obj 1424 549 *~, f 5;
#X msg 1463 531 1;
#X msg 1496 531 0;
#X obj 1527 550 *~, f 5;
#X msg 1566 532 1;
#X msg 1599 532 0;
#X obj 1632 557 *~, f 5;
#X msg 1661 537 1;
#X msg 1694 537 0;
#X obj 913 129 adc~ ~13 14 15 16 17 18 19 20 21 22 23 24, f 57;
#X obj 418 602 *~ 1;
#X obj 587 456 sel 13;
#X obj 670 462 sel 14;
#X obj 768 466 sel 15;
#X obj 863 471 sel 16;
#X obj 967 472 sel 17;
#X obj 1062 477 sel 18;
#X obj 1148 478 sel 19;
#X obj 1265 481 sel 20;
#X obj 1364 483 sel 21;
#X obj 1464 485 sel 22;
#X obj 1564 504 sel 23;
#X obj 1661 502 sel 24;
#X connect 1 0 2 0;
#X connect 2 0 3 0;
#X connect 3 0 6 0;
#X connect 3 0 24 0;
#X connect 3 0 25 0;
#X connect 3 0 26 0;
#X connect 3 0 27 0;
#X connect 3 0 28 0;
#X connect 3 0 48 0;
#X connect 3 0 49 0;
#X connect 3 0 50 0;
#X connect 3 0 51 0;
#X connect 3 0 52 0;
#X connect 3 0 53 0;
#X connect 3 0 54 0;
#X connect 5 0 4 0;
#X connect 6 0 7 0;
#X connect 6 1 8 0;
#X connect 7 0 5 1;
#X connect 8 0 5 1;
#X connect 9 0 4 0;
#X connect 10 0 9 1;
#X connect 11 0 9 1;
#X connect 12 0 4 0;
#X connect 13 0 12 1;
#X connect 14 0 12 1;
#X connect 15 0 4 0;
#X connect 16 0 15 1;
#X connect 17 0 15 1;
#X connect 18 0 4 0;
#X connect 19 0 18 1;
#X connect 20 0 18 1;
#X connect 21 0 4 0;
#X connect 22 0 21 1;
#X connect 23 0 21 1;
#X connect 24 0 10 0;
#X connect 24 1 11 0;
#X connect 25 0 13 0;
#X connect 25 1 14 0;
#X connect 26 0 16 0;
#X connect 26 1 17 0;
#X connect 27 0 19 0;
#X connect 27 1 20 0;
#X connect 28 0 22 0;
#X connect 28 1 23 0;
#X connect 29 0 5 0;
#X connect 29 1 9 0;
#X connect 29 2 12 0;
#X connect 29 3 15 0;
#X connect 29 4 18 0;
#X connect 29 5 21 0;
#X connect 29 6 30 0;
#X connect 29 7 33 0;
#X connect 29 8 36 0;
#X connect 29 9 39 0;
#X connect 29 10 42 0;
#X connect 29 11 45 0;
#X connect 30 0 4 0;
#X connect 31 0 30 1;
#X connect 32 0 30 1;
#X connect 33 0 4 0;
#X connect 34 0 33 1;
#X connect 35 0 33 1;
#X connect 36 0 4 0;
#X connect 37 0 36 1;
#X connect 38 0 36 1;
#X connect 39 0 4 0;
#X connect 40 0 39 1;
#X connect 41 0 39 1;
#X connect 42 0 4 0;
#X connect 43 0 42 1;
#X connect 44 0 42 1;
#X connect 45 0 4 0;
#X connect 46 0 45 1;
#X connect 47 0 45 1;
#X connect 48 0 31 0;
#X connect 48 1 32 0;
#X connect 49 0 34 0;
#X connect 49 1 35 0;
#X connect 50 0 37 0;
#X connect 50 1 38 0;
#X connect 51 0 40 0;
#X connect 51 1 41 0;
#X connect 52 0 43 0;
#X connect 52 1 44 0;
#X connect 53 0 46 0;
#X connect 53 1 47 0;
#X connect 54 0 93 0;
#X connect 54 0 94 0;
#X connect 54 0 95 0;
#X connect 54 0 96 0;
#X connect 54 0 97 0;
#X connect 54 0 98 0;
#X connect 54 0 99 0;
#X connect 54 0 100 0;
#X connect 54 0 101 0;
#X connect 54 0 102 0;
#X connect 54 0 103 0;
#X connect 54 0 104 0;
#X connect 55 0 92 0;
#X connect 56 0 55 1;
#X connect 57 0 55 1;
#X connect 58 0 92 0;
#X connect 59 0 58 1;
#X connect 60 0 58 1;
#X connect 61 0 92 0;
#X connect 62 0 61 1;
#X connect 63 0 61 1;
#X connect 64 0 92 0;
#X connect 65 0 64 1;
#X connect 66 0 64 1;
#X connect 67 0 92 0;
#X connect 68 0 67 1;
#X connect 69 0 67 1;
#X connect 70 0 92 0;
#X connect 71 0 70 1;
#X connect 72 0 70 1;
#X connect 73 0 92 0;
#X connect 74 0 73 1;
#X connect 75 0 73 1;
#X connect 76 0 92 0;
#X connect 77 0 76 1;
#X connect 78 0 76 1;
#X connect 79 0 92 0;
#X connect 80 0 79 1;
#X connect 81 0 79 1;
#X connect 82 0 92 0;
#X connect 83 0 82 1;
#X connect 84 0 82 1;
#X connect 85 0 92 0;
#X connect 86 0 85 1;
#X connect 87 0 85 1;
#X connect 88 0 92 0;
#X connect 89 0 88 1;
#X connect 90 0 88 1;
#X connect 91 0 55 0;
#X connect 91 1 58 0;
#X connect 91 2 61 0;
#X connect 91 3 64 0;
#X connect 91 4 67 0;
#X connect 91 5 70 0;
#X connect 91 6 73 0;
#X connect 91 7 76 0;
#X connect 91 8 79 0;
#X connect 91 9 82 0;
#X connect 91 10 85 0;
#X connect 91 11 88 0;
#X connect 92 0 4 0;
#X connect 93 0 56 0;
#X connect 93 1 57 0;
#X connect 94 0 59 0;
#X connect 94 1 60 0;
#X connect 95 0 62 0;
#X connect 95 1 63 0;
#X connect 96 0 65 0;
#X connect 96 1 66 0;
#X connect 97 0 68 0;
#X connect 97 1 69 0;
#X connect 98 0 71 0;
#X connect 98 1 72 0;
#X connect 99 0 74 0;
#X connect 99 1 75 0;
#X connect 100 0 77 0;
#X connect 100 1 78 0;
#X connect 101 0 80 0;
#X connect 101 1 81 0;
#X connect 102 0 83 0;
#X connect 102 1 84 0;
#X connect 103 0 86 0;
#X connect 103 1 87 0;
#X connect 104 0 89 0;
#X connect 104 1 90 0;
#X coords 0 -1 1 1 85 60 2 100 100;
#X restore 633 443 pd selektr;
#X obj 508 272 oscformat ch6;
#X obj 616 246 oscformat ch7;
#X obj 697 274 oscformat ch8;
#X obj 509 362 ctlout 6;
#X obj 625 365 ctlout 7;
#X obj 707 365 ctlout 8;
#N canvas -110 -1018 1920 950 selektr 0;
#X obj 101 101 cnv 15 84 59 empty empty empty 20 12 0 14 #606060 #404040
0;
#X obj 114 42 loadbang;
#X msg 114 64 1;
#X obj 109 133 nbx 5 14 0 24 0 0 empty empty chann 0 -8 0 10 #000000
#00ff04 #00ff04 0 256;
#X obj 174 536 outlet~;
#X obj 42 287 *~, f 5;
#X obj 60 243 sel 1;
#X msg 58 267 1;
#X msg 91 267 0;
#X obj 102 291 *~, f 5;
#X msg 141 273 1;
#X msg 174 273 0;
#X obj 200 295 *~, f 5;
#X msg 239 277 1;
#X msg 272 277 0;
#X obj 295 300 *~, f 5;
#X msg 334 282 1;
#X msg 367 282 0;
#X obj 398 301 *~, f 5;
#X msg 437 283 1;
#X msg 470 283 0;
#X obj 503 308 *~, f 5;
#X msg 532 288 1;
#X msg 565 288 0;
#X obj 143 249 sel 2;
#X obj 241 253 sel 3;
#X obj 336 258 sel 4;
#X obj 439 259 sel 5;
#X obj 534 264 sel 6;
#X obj 502 127 adc~ 1 2 3 4 5 6 7 8 9 10 11 12, f 57;
#X obj 608 311 *~, f 5;
#X msg 619 289 1;
#X msg 652 289 0;
#X obj 703 316 *~, f 5;
#X msg 730 302 1;
#X msg 763 302 0;
#X obj 801 320 *~, f 5;
#X msg 840 302 1;
#X msg 873 302 0;
#X obj 896 325 *~, f 5;
#X msg 935 307 1;
#X msg 968 307 0;
#X obj 999 326 *~, f 5;
#X msg 1038 308 1;
#X msg 1071 308 0;
#X obj 1104 333 *~, f 5;
#X msg 1133 313 1;
#X msg 1166 313 0;
#X obj 621 265 sel 7;
#X obj 738 268 sel 8;
#X obj 837 270 sel 9;
#X obj 937 272 sel 10;
#X obj 1049 270 sel 11;
#X obj 1133 277 sel 12;
#X obj 642 414 nbx 5 14 -1e+37 1e+37 0 0 empty empty chann 0 -8 0 10
#000000 #00ff04 #00ff04 0 256;
#X obj 570 511 *~, f 5;
#X msg 585 480 1;
#X msg 618 480 0;
#X obj 630 515 *~, f 5;
#X msg 668 486 1;
#X msg 701 486 0;
#X obj 728 519 *~, f 5;
#X msg 766 490 1;
#X msg 799 490 0;
#X obj 823 524 *~, f 5;
#X msg 862 506 1;
#X msg 895 506 0;
#X obj 926 525 *~, f 5;
#X msg 965 507 1;
#X msg 998 507 0;
#X obj 1031 532 *~, f 5;
#X msg 1060 512 1;
#X msg 1093 512 0;
#X obj 1136 535 *~, f 5;
#X msg 1147 513 1;
#X msg 1180 513 0;
#X obj 1231 540 *~, f 5;
#X msg 1258 526 1;
#X msg 1291 526 0;
#X obj 1329 544 *~, f 5;
#X msg 1368 526 1;
#X msg 1401 526 0;
#X obj 1424 549 *~, f 5;
#X msg 1463 531 1;
#X msg 1496 531 0;
#X obj 1527 550 *~, f 5;
#X msg 1566 532 1;
#X msg 1599 532 0;
#X obj 1632 557 *~, f 5;
#X msg 1661 537 1;
#X msg 1694 537 0;
#X obj 913 129 adc~ ~13 14 15 16 17 18 19 20 21 22 23 24, f 57;
#X obj 418 602 *~ 1;
#X obj 587 456 sel 13;
#X obj 670 462 sel 14;
#X obj 768 466 sel 15;
#X obj 863 471 sel 16;
#X obj 967 472 sel 17;
#X obj 1062 477 sel 18;
#X obj 1148 478 sel 19;
#X obj 1265 481 sel 20;
#X obj 1364 483 sel 21;
#X obj 1464 485 sel 22;
#X obj 1564 504 sel 23;
#X obj 1661 502 sel 24;
#X connect 1 0 2 0;
#X connect 2 0 3 0;
#X connect 3 0 6 0;
#X connect 3 0 24 0;
#X connect 3 0 25 0;
#X connect 3 0 26 0;
#X connect 3 0 27 0;
#X connect 3 0 28 0;
#X connect 3 0 48 0;
#X connect 3 0 49 0;
#X connect 3 0 50 0;
#X connect 3 0 51 0;
#X connect 3 0 52 0;
#X connect 3 0 53 0;
#X connect 3 0 54 0;
#X connect 5 0 4 0;
#X connect 6 0 7 0;
#X connect 6 1 8 0;
#X connect 7 0 5 1;
#X connect 8 0 5 1;
#X connect 9 0 4 0;
#X connect 10 0 9 1;
#X connect 11 0 9 1;
#X connect 12 0 4 0;
#X connect 13 0 12 1;
#X connect 14 0 12 1;
#X connect 15 0 4 0;
#X connect 16 0 15 1;
#X connect 17 0 15 1;
#X connect 18 0 4 0;
#X connect 19 0 18 1;
#X connect 20 0 18 1;
#X connect 21 0 4 0;
#X connect 22 0 21 1;
#X connect 23 0 21 1;
#X connect 24 0 10 0;
#X connect 24 1 11 0;
#X connect 25 0 13 0;
#X connect 25 1 14 0;
#X connect 26 0 16 0;
#X connect 26 1 17 0;
#X connect 27 0 19 0;
#X connect 27 1 20 0;
#X connect 28 0 22 0;
#X connect 28 1 23 0;
#X connect 29 0 5 0;
#X connect 29 1 9 0;
#X connect 29 2 12 0;
#X connect 29 3 15 0;
#X connect 29 4 18 0;
#X connect 29 5 21 0;
#X connect 29 6 30 0;
#X connect 29 7 33 0;
#X connect 29 8 36 0;
#X connect 29 9 39 0;
#X connect 29 10 42 0;
#X connect 29 11 45 0;
#X connect 30 0 4 0;
#X connect 31 0 30 1;
#X connect 32 0 30 1;
#X connect 33 0 4 0;
#X connect 34 0 33 1;
#X connect 35 0 33 1;
#X connect 36 0 4 0;
#X connect 37 0 36 1;
#X connect 38 0 36 1;
#X connect 39 0 4 0;
#X connect 40 0 39 1;
#X connect 41 0 39 1;
#X connect 42 0 4 0;
#X connect 43 0 42 1;
#X connect 44 0 42 1;
#X connect 45 0 4 0;
#X connect 46 0 45 1;
#X connect 47 0 45 1;
#X connect 48 0 31 0;
#X connect 48 1 32 0;
#X connect 49 0 34 0;
#X connect 49 1 35 0;
#X connect 50 0 37 0;
#X connect 50 1 38 0;
#X connect 51 0 40 0;
#X connect 51 1 41 0;
#X connect 52 0 43 0;
#X connect 52 1 44 0;
#X connect 53 0 46 0;
#X connect 53 1 47 0;
#X connect 54 0 93 0;
#X connect 54 0 94 0;
#X connect 54 0 95 0;
#X connect 54 0 96 0;
#X connect 54 0 97 0;
#X connect 54 0 98 0;
#X connect 54 0 99 0;
#X connect 54 0 100 0;
#X connect 54 0 101 0;
#X connect 54 0 102 0;
#X connect 54 0 103 0;
#X connect 54 0 104 0;
#X connect 55 0 92 0;
#X connect 56 0 55 1;
#X connect 57 0 55 1;
#X connect 58 0 92 0;
#X connect 59 0 58 1;
#X connect 60 0 58 1;
#X connect 61 0 92 0;
#X connect 62 0 61 1;
#X connect 63 0 61 1;
#X connect 64 0 92 0;
#X connect 65 0 64 1;
#X connect 66 0 64 1;
#X connect 67 0 92 0;
#X connect 68 0 67 1;
#X connect 69 0 67 1;
#X connect 70 0 92 0;
#X connect 71 0 70 1;
#X connect 72 0 70 1;
#X connect 73 0 92 0;
#X connect 74 0 73 1;
#X connect 75 0 73 1;
#X connect 76 0 92 0;
#X connect 77 0 76 1;
#X connect 78 0 76 1;
#X connect 79 0 92 0;
#X connect 80 0 79 1;
#X connect 81 0 79 1;
#X connect 82 0 92 0;
#X connect 83 0 82 1;
#X connect 84 0 82 1;
#X connect 85 0 92 0;
#X connect 86 0 85 1;
#X connect 87 0 85 1;
#X connect 88 0 92 0;
#X connect 89 0 88 1;
#X connect 90 0 88 1;
#X connect 91 0 55 0;
#X connect 91 1 58 0;
#X connect 91 2 61 0;
#X connect 91 3 64 0;
#X connect 91 4 67 0;
#X connect 91 5 70 0;
#X connect 91 6 73 0;
#X connect 91 7 76 0;
#X connect 91 8 79 0;
#X connect 91 9 82 0;
#X connect 91 10 85 0;
#X connect 91 11 88 0;
#X connect 92 0 4 0;
#X connect 93 0 56 0;
#X connect 93 1 57 0;
#X connect 94 0 59 0;
#X connect 94 1 60 0;
#X connect 95 0 62 0;
#X connect 95 1 63 0;
#X connect 96 0 65 0;
#X connect 96 1 66 0;
#X connect 97 0 68 0;
#X connect 97 1 69 0;
#X connect 98 0 71 0;
#X connect 98 1 72 0;
#X connect 99 0 74 0;
#X connect 99 1 75 0;
#X connect 100 0 77 0;
#X connect 100 1 78 0;
#X connect 101 0 80 0;
#X connect 101 1 81 0;
#X connect 102 0 83 0;
#X connect 102 1 84 0;
#X connect 103 0 86 0;
#X connect 103 1 87 0;
#X connect 104 0 89 0;
#X connect 104 1 90 0;
#X coords 0 -1 1 1 85 60 2 100 100;
#X restore 772 441 pd selektr;
#X obj 805 588 hsl 128 15 0 1 0 0 empty empty empty -2 -8 0 10 #fcfcfc
#000000 #000000 0 1;
#X obj 804 567 spigot 1, f 9;
#N canvas 864 -723 484 454 pitchanlz 0;
#X floatatom 121 118 5 0 0 0 - - - 0;
#X floatatom 314 120 5 0 0 0 - - - 0;
#X text 120 136 pitch;
#X text 304 139 envelope;
#X obj 125 88 sigmund~ -hop 4096 pitch env;
#X obj 125 63 inlet~;
#X obj 127 176 moses 1;
#X obj 126 208 / 128;
#X obj 127 262 line;
#X floatatom 217 214 5 0 0 0 - - - 0;
#X obj 125 238 pack 0 44;
#X obj 102 415 outlet;
#X floatatom 161 318 5 0 0 0 - - - 0;
#X connect 4 0 0 0;
#X connect 4 0 6 0;
#X connect 4 1 1 0;
#X connect 5 0 4 0;
#X connect 6 1 7 0;
#X connect 7 0 10 0;
#X connect 8 0 11 0;
#X connect 8 0 12 0;
#X connect 9 0 10 1;
#X connect 10 0 8 0;
#X restore 772 509 pd pitchanlz;
#X obj 740 533 oscformat pitch4;
#X connect 1 0 3 0;
#X connect 2 0 3 0;
#X connect 4 0 48 0;
#X connect 5 0 48 1;
#X connect 6 0 12 0;
#X connect 6 0 13 0;
#X connect 6 0 4 0;
#X connect 6 0 68 0;
#X connect 7 0 8 0;
#X connect 8 0 2 0;
#X connect 9 0 5 0;
#X connect 13 0 9 0;
#X connect 14 0 3 0;
#X connect 15 0 10 0;
#X connect 16 0 3 0;
#X connect 17 0 3 0;
#X connect 18 0 3 0;
#X connect 19 0 3 0;
#X connect 20 0 21 0;
#X connect 21 0 22 0;
#X connect 23 0 24 0;
#X connect 24 0 31 0;
#X connect 25 0 26 0;
#X connect 26 0 32 0;
#X connect 27 0 28 0;
#X connect 28 0 33 0;
#X connect 29 0 30 0;
#X connect 30 0 34 0;
#X connect 35 0 50 0;
#X connect 36 0 37 0;
#X connect 36 0 39 0;
#X connect 37 0 3 0;
#X connect 39 0 38 0;
#X connect 41 0 40 0;
#X connect 43 0 42 0;
#X connect 44 0 45 0;
#X connect 44 0 41 0;
#X connect 45 0 3 0;
#X connect 46 0 47 0;
#X connect 46 0 43 0;
#X connect 47 0 3 0;
#X connect 48 0 49 0;
#X connect 50 0 15 0;
#X connect 50 0 14 0;
#X connect 50 0 20 0;
#X connect 51 0 52 0;
#X connect 52 0 66 0;
#X connect 52 0 16 0;
#X connect 52 0 23 0;
#X connect 53 0 54 0;
#X connect 54 0 70 0;
#X connect 54 0 17 0;
#X connect 54 0 25 0;
#X connect 55 0 56 0;
#X connect 56 0 72 0;
#X connect 56 0 18 0;
#X connect 56 0 27 0;
#X connect 57 0 58 0;
#X connect 58 0 74 0;
#X connect 58 0 19 0;
#X connect 58 0 29 0;
#X connect 59 0 60 0;
#X connect 60 0 76 0;
#X connect 60 0 81 0;
#X connect 60 0 90 0;
#X connect 61 0 62 0;
#X connect 62 0 78 0;
#X connect 62 0 83 0;
#X connect 62 0 91 0;
#X connect 63 0 64 0;
#X connect 64 0 80 0;
#X connect 64 0 85 0;
#X connect 64 0 92 0;
#X connect 66 0 65 0;
#X connect 67 0 7 0;
#X connect 70 0 69 0;
#X connect 72 0 71 0;
#X connect 74 0 73 0;
#X connect 76 0 75 0;
#X connect 78 0 77 0;
#X connect 80 0 79 0;
#X connect 81 0 82 0;
#X connect 82 0 93 0;
#X connect 83 0 84 0;
#X connect 84 0 94 0;
#X connect 85 0 86 0;
#X connect 86 0 95 0;
#X connect 87 0 36 0;
#X connect 88 0 44 0;
#X connect 89 0 46 0;
#X connect 90 0 3 0;
#X connect 91 0 3 0;
#X connect 92 0 3 0;
#X connect 96 0 99 0;
#X connect 98 0 97 0;
#X connect 99 0 98 0;
#X connect 99 0 100 0;
#X connect 100 0 3 0;
