#N canvas 595 60 896 1092 12;
#X obj 124 730 tgl 15 0 empty empty empty 17 7 0 10 #fcfcfc #000000
#000000 0 1;
#X floatatom 47 813 5 0 0 0 - - - 0;
#X obj 47 711 loadbang;
#X obj 50 754 hsl 64 15 222 10 0 0 empty empty data_clock_ms -2 -8
0 10 #fcfcc4 #000000 #000000 0 1;
#X msg 47 774 \; pd dsp 1;
#X msg 47 835 20;
#X obj 45 878 metro 20;
#X obj 46 899 s mtr;
#X obj 47 857 s ldb;
#X obj 47 663 s midionoff;
#X obj 46 613 tgl 45 0 empty empty empty 17 7 0 10 #f8fc00 #000000
#000000 0 1;
#X msg 48 690 1;
#X text 92 626 <-- Switches all outs at once (Midi and osc);
#X msg 266 18 list Gitarr Vibrafon Kontrabas Trumpet Klarinett Sax
Basklarinett Alla, f 71;
#X text 14 7 TODO - Add "ctlin" to gain and toggle.;
#X obj 7 53 cnv 2 92 320 empty empty empty 20 12 0 14 #f3deb8 #404040
0;
#X obj 45 480 netsend -u -b;
#X msg 45 580 connect 255.255.255.255 9000;
#X obj 45 529 delay 4444;
#X obj 45 555 t b;
#X obj 45 504 r ldb;
#X obj 15 343 multiOSC, f 10;
#X text 13 59 GITARR;
#X obj 19 296 hsl 64 15 0 1 0 0 empty empty empty -2 -8 0 10 #fcfcfc
#000000 #000000 0 1;
#X obj 15 272 spigot 1, f 10;
#N canvas 599 239 591 532 Anlz 0;
#X obj 264 143 env~ 1024;
#X obj 266 188 line;
#X floatatom 321 101 5 0 0 0 - - - 0;
#X obj 316 263 / 22;
#X floatatom 361 135 5 0 0 0 - - - 0;
#X obj 106 121 hsl 64 15 10 300 0 1 empty empty smooth 0 6 0 10 #fcfcc4
#000000 #000000 0 1;
#X obj 106 103 hsl 64 15 0.5 1.5 0 1 empty empty gain 0 6 0 10 #fcfcc4
#000000 #000000 0 1;
#X floatatom 373 194 2 0 0 0 - - - 0;
#X obj 264 80 *~ 1.13;
#X obj 264 101 *~ 1.13;
#X obj 270 313 * 100;
#X obj 269 337 int;
#X obj 269 360 change;
#X obj 268 384 / 100;
#X obj 106 139 hsl 64 15 0 128 0 1 empty empty resol 0 6 0 10 #fcfcc4
#000000 #000000 0 1;
#X obj 269 409 clip 0 1;
#X obj 264 164 pack 0 44;
#X obj 270 283 f;
#X msg 272 241 0;
#X obj 264 47 inlet~;
#X obj 487 84 r mtr;
#X obj 267 472 outlet;
#X obj 270 211 moses 22;
#X obj 315 237 - 22;
#X obj 539 271 r ldb;
#X obj 140 178 tgl 32 0 empty empty empty 17 7 0 10 #f8fc00 #000000
#000000 0 1;
#X obj 267 438 spigot 1;
#X msg 545 308 1;
#X obj 142 37 r midionoff;
#X text 334 78 <--gain preset;
#X text 354 164 <--smooth preset;
#X text 460 206 <--thresh preset;
#X msg 360 336 100;
#X text 391 337 <--resol preset;
#X text 585 270 =Loadbang;
#X obj 106 157 hsl 64 15 10 99 0 1 empty empty Thres 0 6 0 10 #fcfcc4
#000000 #000000 2200 1;
#X msg 423 205 40;
#X connect 0 0 16 0;
#X connect 1 0 22 0;
#X connect 2 0 8 1;
#X connect 2 0 9 1;
#X connect 3 0 17 1;
#X connect 4 0 16 1;
#X connect 5 0 4 0;
#X connect 6 0 2 0;
#X connect 7 0 22 1;
#X connect 7 0 23 1;
#X connect 7 0 3 1;
#X connect 8 0 9 0;
#X connect 9 0 0 0;
#X connect 10 0 11 0;
#X connect 11 0 12 0;
#X connect 12 0 13 0;
#X connect 13 0 15 0;
#X connect 14 0 10 1;
#X connect 14 0 13 1;
#X connect 15 0 26 0;
#X connect 16 0 1 0;
#X connect 17 0 10 0;
#X connect 18 0 17 1;
#X connect 19 0 8 0;
#X connect 20 0 17 0;
#X connect 22 0 18 0;
#X connect 22 1 23 0;
#X connect 23 0 3 0;
#X connect 24 0 36 0;
#X connect 24 0 27 0;
#X connect 24 0 32 0;
#X connect 25 0 26 1;
#X connect 26 0 21 0;
#X connect 27 0 25 0;
#X connect 28 0 25 0;
#X connect 32 0 13 1;
#X connect 32 0 10 1;
#X connect 35 0 7 0;
#X connect 36 0 35 0;
#X coords 0 -1 1 1 76 114 2 100 100;
#X restore 15 154 pd Anlz;
#N canvas 0 0 1792 950 selektr 0;
#X obj 101 101 cnv 15 76 59 empty empty empty 20 12 0 14 #606060 #404040
0;
#X obj 109 70 loadbang;
#X obj 105 137 nbx 5 14 0 24 0 1 empty empty chann 0 -8 0 10 #000000
#00fc04 #00fc04 1 256;
#X obj 174 536 outlet~;
#X obj 42 287 *~, f 5;
#X obj 60 243 sel 1;
#X msg 58 267 1;
#X msg 91 267 0;
#X obj 102 291 *~, f 5;
#X msg 141 273 1;
#X msg 174 273 0;
#X obj 200 295 *~, f 5;
#X msg 239 277 1;
#X msg 272 277 0;
#X obj 295 300 *~, f 5;
#X msg 334 282 1;
#X msg 367 282 0;
#X obj 398 301 *~, f 5;
#X msg 437 283 1;
#X msg 470 283 0;
#X obj 503 308 *~, f 5;
#X msg 532 288 1;
#X msg 565 288 0;
#X obj 143 249 sel 2;
#X obj 241 253 sel 3;
#X obj 336 258 sel 4;
#X obj 439 259 sel 5;
#X obj 534 264 sel 6;
#X obj 502 127 adc~ 1 2 3 4 5 6 7 8 9 10 11 12, f 57;
#X obj 608 311 *~, f 5;
#X msg 619 289 1;
#X msg 652 289 0;
#X obj 703 316 *~, f 5;
#X msg 730 302 1;
#X msg 763 302 0;
#X obj 801 320 *~, f 5;
#X msg 840 302 1;
#X msg 873 302 0;
#X obj 896 325 *~, f 5;
#X msg 935 307 1;
#X msg 968 307 0;
#X obj 999 326 *~, f 5;
#X msg 1038 308 1;
#X msg 1071 308 0;
#X obj 1104 333 *~, f 5;
#X msg 1133 313 1;
#X msg 1166 313 0;
#X obj 621 265 sel 7;
#X obj 738 268 sel 8;
#X obj 837 270 sel 9;
#X obj 937 272 sel 10;
#X obj 1049 270 sel 11;
#X obj 1133 277 sel 12;
#X obj 642 414 nbx 5 14 -1e+37 1e+37 0 0 empty empty chann 0 -8 0 10
#000000 #00fc04 #00fc04 0 256;
#X obj 570 511 *~, f 5;
#X msg 585 480 1;
#X msg 618 480 0;
#X obj 630 515 *~, f 5;
#X msg 668 486 1;
#X msg 701 486 0;
#X obj 728 519 *~, f 5;
#X msg 766 490 1;
#X msg 799 490 0;
#X obj 823 524 *~, f 5;
#X msg 862 506 1;
#X msg 895 506 0;
#X obj 926 525 *~, f 5;
#X msg 965 507 1;
#X msg 998 507 0;
#X obj 1031 532 *~, f 5;
#X msg 1060 512 1;
#X msg 1093 512 0;
#X obj 1136 535 *~, f 5;
#X msg 1147 513 1;
#X msg 1180 513 0;
#X obj 1231 540 *~, f 5;
#X msg 1258 526 1;
#X msg 1291 526 0;
#X obj 1329 544 *~, f 5;
#X msg 1368 526 1;
#X msg 1401 526 0;
#X obj 1424 549 *~, f 5;
#X msg 1463 531 1;
#X msg 1496 531 0;
#X obj 1527 550 *~, f 5;
#X msg 1566 532 1;
#X msg 1599 532 0;
#X obj 1632 557 *~, f 5;
#X msg 1661 537 1;
#X msg 1694 537 0;
#X obj 913 129 adc~ ~13 14 15 16 17 18 19 20 21 22 23 24, f 57;
#X obj 418 602 *~ 1;
#X obj 587 456 sel 13;
#X obj 670 462 sel 14;
#X obj 768 466 sel 15;
#X obj 863 471 sel 16;
#X obj 967 472 sel 17;
#X obj 1062 477 sel 18;
#X obj 1148 478 sel 19;
#X obj 1265 481 sel 20;
#X obj 1364 483 sel 21;
#X obj 1464 485 sel 22;
#X obj 1564 504 sel 23;
#X obj 1661 502 sel 24;
#X obj 398 127 outlet;
#X connect 1 0 2 0;
#X connect 2 0 5 0;
#X connect 2 0 23 0;
#X connect 2 0 24 0;
#X connect 2 0 25 0;
#X connect 2 0 26 0;
#X connect 2 0 27 0;
#X connect 2 0 47 0;
#X connect 2 0 48 0;
#X connect 2 0 49 0;
#X connect 2 0 50 0;
#X connect 2 0 51 0;
#X connect 2 0 52 0;
#X connect 2 0 53 0;
#X connect 2 0 104 0;
#X connect 4 0 3 0;
#X connect 5 0 6 0;
#X connect 5 1 7 0;
#X connect 6 0 4 1;
#X connect 7 0 4 1;
#X connect 8 0 3 0;
#X connect 9 0 8 1;
#X connect 10 0 8 1;
#X connect 11 0 3 0;
#X connect 12 0 11 1;
#X connect 13 0 11 1;
#X connect 14 0 3 0;
#X connect 15 0 14 1;
#X connect 16 0 14 1;
#X connect 17 0 3 0;
#X connect 18 0 17 1;
#X connect 19 0 17 1;
#X connect 20 0 3 0;
#X connect 21 0 20 1;
#X connect 22 0 20 1;
#X connect 23 0 9 0;
#X connect 23 1 10 0;
#X connect 24 0 12 0;
#X connect 24 1 13 0;
#X connect 25 0 15 0;
#X connect 25 1 16 0;
#X connect 26 0 18 0;
#X connect 26 1 19 0;
#X connect 27 0 21 0;
#X connect 27 1 22 0;
#X connect 28 0 4 0;
#X connect 28 1 8 0;
#X connect 28 2 11 0;
#X connect 28 3 14 0;
#X connect 28 4 17 0;
#X connect 28 5 20 0;
#X connect 28 6 29 0;
#X connect 28 7 32 0;
#X connect 28 8 35 0;
#X connect 28 9 38 0;
#X connect 28 10 41 0;
#X connect 28 11 44 0;
#X connect 29 0 3 0;
#X connect 30 0 29 1;
#X connect 31 0 29 1;
#X connect 32 0 3 0;
#X connect 33 0 32 1;
#X connect 34 0 32 1;
#X connect 35 0 3 0;
#X connect 36 0 35 1;
#X connect 37 0 35 1;
#X connect 38 0 3 0;
#X connect 39 0 38 1;
#X connect 40 0 38 1;
#X connect 41 0 3 0;
#X connect 42 0 41 1;
#X connect 43 0 41 1;
#X connect 44 0 3 0;
#X connect 45 0 44 1;
#X connect 46 0 44 1;
#X connect 47 0 30 0;
#X connect 47 1 31 0;
#X connect 48 0 33 0;
#X connect 48 1 34 0;
#X connect 49 0 36 0;
#X connect 49 1 37 0;
#X connect 50 0 39 0;
#X connect 50 1 40 0;
#X connect 51 0 42 0;
#X connect 51 1 43 0;
#X connect 52 0 45 0;
#X connect 52 1 46 0;
#X connect 53 0 92 0;
#X connect 53 0 93 0;
#X connect 53 0 94 0;
#X connect 53 0 95 0;
#X connect 53 0 96 0;
#X connect 53 0 97 0;
#X connect 53 0 98 0;
#X connect 53 0 99 0;
#X connect 53 0 100 0;
#X connect 53 0 101 0;
#X connect 53 0 102 0;
#X connect 53 0 103 0;
#X connect 54 0 91 0;
#X connect 55 0 54 1;
#X connect 56 0 54 1;
#X connect 57 0 91 0;
#X connect 58 0 57 1;
#X connect 59 0 57 1;
#X connect 60 0 91 0;
#X connect 61 0 60 1;
#X connect 62 0 60 1;
#X connect 63 0 91 0;
#X connect 64 0 63 1;
#X connect 65 0 63 1;
#X connect 66 0 91 0;
#X connect 67 0 66 1;
#X connect 68 0 66 1;
#X connect 69 0 91 0;
#X connect 70 0 69 1;
#X connect 71 0 69 1;
#X connect 72 0 91 0;
#X connect 73 0 72 1;
#X connect 74 0 72 1;
#X connect 75 0 91 0;
#X connect 76 0 75 1;
#X connect 77 0 75 1;
#X connect 78 0 91 0;
#X connect 79 0 78 1;
#X connect 80 0 78 1;
#X connect 81 0 91 0;
#X connect 82 0 81 1;
#X connect 83 0 81 1;
#X connect 84 0 91 0;
#X connect 85 0 84 1;
#X connect 86 0 84 1;
#X connect 87 0 91 0;
#X connect 88 0 87 1;
#X connect 89 0 87 1;
#X connect 90 0 54 0;
#X connect 90 1 57 0;
#X connect 90 2 60 0;
#X connect 90 3 63 0;
#X connect 90 4 66 0;
#X connect 90 5 69 0;
#X connect 90 6 72 0;
#X connect 90 7 75 0;
#X connect 90 8 78 0;
#X connect 90 9 81 0;
#X connect 90 10 84 0;
#X connect 90 11 87 0;
#X connect 91 0 3 0;
#X connect 92 0 55 0;
#X connect 92 1 56 0;
#X connect 93 0 58 0;
#X connect 93 1 59 0;
#X connect 94 0 61 0;
#X connect 94 1 62 0;
#X connect 95 0 64 0;
#X connect 95 1 65 0;
#X connect 96 0 67 0;
#X connect 96 1 68 0;
#X connect 97 0 70 0;
#X connect 97 1 71 0;
#X connect 98 0 73 0;
#X connect 98 1 74 0;
#X connect 99 0 76 0;
#X connect 99 1 77 0;
#X connect 100 0 79 0;
#X connect 100 1 80 0;
#X connect 101 0 82 0;
#X connect 101 1 83 0;
#X connect 102 0 85 0;
#X connect 102 1 86 0;
#X connect 103 0 88 0;
#X connect 103 1 89 0;
#X coords 0 -1 1 1 76 60 2 100 100;
#X restore 15 81 pd selektr;
#X obj 16 315 sendMidi;
#X connect 0 0 6 0;
#X connect 1 0 6 1;
#X connect 2 0 4 0;
#X connect 2 0 5 0;
#X connect 2 0 0 0;
#X connect 2 0 8 0;
#X connect 2 0 11 0;
#X connect 3 0 1 0;
#X connect 5 0 3 0;
#X connect 6 0 7 0;
#X connect 10 0 9 0;
#X connect 11 0 10 0;
#X connect 17 0 16 0;
#X connect 18 0 19 0;
#X connect 19 0 17 0;
#X connect 20 0 18 0;
#X connect 21 0 16 0;
#X connect 21 1 16 0;
#X connect 21 2 16 0;
#X connect 21 3 16 0;
#X connect 21 4 16 0;
#X connect 21 5 16 0;
#X connect 21 6 16 0;
#X connect 21 7 16 0;
#X connect 23 0 21 0;
#X connect 24 0 23 0;
#X connect 25 0 24 0;
#X connect 25 0 27 0;
#X connect 26 0 25 0;
#X connect 26 1 27 1;
#X connect 26 1 21 1;
