#N canvas 55 123 916 800 12;
#X obj -1 -8 cnv 15 1666 1333 empty empty empty 20 12 0 14 #b8b8b8
#404040 0;
#X obj 18 102 env~ 1024;
#X obj 20 147 line;
#X floatatom 75 60 5 0 0 0 - - - 0;
#X msg 475 592 disconnect;
#X msg 404 611 connect 255.255.255.255 9000;
#X obj 17 633 netsend -u -b;
#X obj 992 198 tgl 15 0 empty empty empty 17 7 0 10 #fcfcfc #000000
#000000 0 1;
#X floatatom 1060 94 5 0 0 0 - - - 0;
#X obj 102 214 / 22;
#X floatatom 91 124 5 0 0 0 - - - 0;
#X obj 1059 554 loadbang;
#X text 72 23 gain;
#X obj 404 573 delay 4444;
#X obj 404 592 t b;
#X obj 1073 77 hsl 64 15 222 10 0 0 empty empty data_clock_ms -2 -8
0 10 #fcfcc4 #000000 #000000 0 1;
#X obj 94 107 hsl 64 15 10 300 0 0 empty empty empty -2 -8 0 10 #fcfcc4
#000000 #000000 0 1;
#X obj 1007 115 metro 50;
#X text 92 90 smoothing;
#X obj 86 41 hsl 64 15 0.5 1.5 0 0 empty empty empty -2 -8 0 10 #fcfcc4
#000000 #000000 0 1;
#X obj 10 443 hsl 128 15 0 1 0 0 empty empty empty -2 -8 0 10 #fcfcfc
#000000 #000000 0 1;
#X floatatom 127 153 5 0 0 0 - - - 0;
#X obj 102 190 - 60;
#X obj 20 171 moses 60;
#X text 1043 16 http://servando.teks.no;
#X obj 45 397 tgl 15 0 empty empty empty 17 7 0 10 #fcfcfc #000000
#000000 0 1;
#X obj 18 39 *~ 1.13;
#X obj 18 60 *~ 1.13;
#X msg 1059 574 \; pd dsp 1;
#X obj 24 259 * 100;
#X obj 23 283 int;
#X obj 23 306 change;
#X obj 22 330 / 100;
#X obj 73 293 hsl 128 15 0 127 0 0 empty empty env.resolution -2 -8
0 10 #fcfcc4 #000000 #000000 0 1;
#X obj 23 355 clip 0 1;
#X obj 18 123 pack 0 44;
#X obj 25 235 f;
#X msg 26 200 0;
#X text 63 394 visualize peak;
#X msg 1078 113 20;
#X obj 190 102 env~ 1024;
#X obj 192 147 line;
#X floatatom 247 60 5 0 0 0 - - - 0;
#X obj 274 214 / 22;
#X floatatom 263 124 5 0 0 0 - - - 0;
#X text 244 23 gain;
#X obj 266 107 hsl 64 15 10 300 0 0 empty empty empty -2 -8 0 10 #fcfcc4
#000000 #000000 0 1;
#X text 264 90 smoothing;
#X obj 258 41 hsl 64 15 0.5 1.5 0 0 empty empty empty -2 -8 0 10 #fcfcc4
#000000 #000000 0 1;
#X obj 182 443 hsl 128 15 0 1 0 0 empty empty empty -2 -8 0 10 #fcfcfc
#000000 #000000 0 1;
#X floatatom 299 153 5 0 0 0 - - - 0;
#X obj 274 190 - 60;
#X obj 192 171 moses 60;
#X obj 217 397 tgl 15 0 empty empty empty 17 7 0 10 #fcfcfc #000000
#000000 0 1;
#X obj 190 39 *~ 1.13;
#X obj 190 60 *~ 1.13;
#X obj 196 259 * 100;
#X obj 195 283 int;
#X obj 195 306 change;
#X obj 194 330 / 100;
#X obj 245 299 hsl 128 15 0 127 0 0 empty empty env.resolution -2 -8
0 10 #fcfcc4 #000000 #000000 0 1;
#X obj 195 355 clip 0 1;
#X obj 190 123 pack 0 44;
#X obj 197 235 f;
#X msg 198 200 0;
#X text 235 394 visualize peak;
#X obj 18 2 adc~ 1 2 3 4 5 6, f 121;
#X obj 343 103 env~ 1024;
#X obj 345 148 line;
#X floatatom 400 61 5 0 0 0 - - - 0;
#X obj 427 215 / 22;
#X floatatom 416 125 5 0 0 0 - - - 0;
#X text 397 24 gain;
#X obj 419 108 hsl 64 15 10 300 0 0 empty empty empty -2 -8 0 10 #fcfcc4
#000000 #000000 0 1;
#X text 417 91 smoothing;
#X obj 411 42 hsl 64 15 0.5 1.5 0 0 empty empty empty -2 -8 0 10 #fcfcc4
#000000 #000000 0 1;
#X obj 335 444 hsl 128 15 0 1 0 0 empty empty empty -2 -8 0 10 #fcfcfc
#000000 #000000 0 1;
#X floatatom 452 154 5 0 0 0 - - - 0;
#X obj 427 191 - 60;
#X obj 345 172 moses 60;
#X obj 370 398 tgl 15 0 empty empty empty 17 7 0 10 #fcfcfc #000000
#000000 0 1;
#X obj 343 40 *~ 1.13;
#X obj 343 61 *~ 1.13;
#X obj 349 260 * 100;
#X obj 348 284 int;
#X obj 348 307 change;
#X obj 347 331 / 100;
#X obj 398 300 hsl 128 15 0 127 0 0 empty empty env.resolution -2 -8
0 10 #fcfcc4 #000000 #000000 0 1;
#X obj 348 356 clip 0 1;
#X obj 343 124 pack 0 44;
#X obj 350 236 f;
#X msg 351 201 0;
#X text 388 395 visualize peak;
#X obj 494 102 env~ 1024;
#X obj 496 147 line;
#X floatatom 551 60 5 0 0 0 - - - 0;
#X obj 578 214 / 22;
#X floatatom 567 124 5 0 0 0 - - - 0;
#X text 548 23 gain;
#X obj 570 107 hsl 64 15 10 300 0 0 empty empty empty -2 -8 0 10 #fcfcc4
#000000 #000000 0 1;
#X text 568 90 smoothing;
#X obj 562 41 hsl 64 15 0.5 1.5 0 0 empty empty empty -2 -8 0 10 #fcfcc4
#000000 #000000 0 1;
#X obj 486 443 hsl 128 15 0 1 0 0 empty empty empty -2 -8 0 10 #fcfcfc
#000000 #000000 0 1;
#X floatatom 603 153 5 0 0 0 - - - 0;
#X obj 578 190 - 60;
#X obj 496 171 moses 60;
#X obj 521 397 tgl 15 0 empty empty empty 17 7 0 10 #fcfcfc #000000
#000000 0 1;
#X obj 494 39 *~ 1.13;
#X obj 494 60 *~ 1.13;
#X obj 500 259 * 100;
#X obj 499 283 int;
#X obj 499 306 change;
#X obj 498 330 / 100;
#X obj 549 293 hsl 128 15 0 127 0 0 empty empty env.resolution -2 -8
0 10 #fcfcc4 #000000 #000000 0 1;
#X obj 499 355 clip 0 1;
#X obj 494 123 pack 0 44;
#X obj 501 235 f;
#X msg 502 200 0;
#X text 539 394 visualize peak;
#X obj 666 102 env~ 1024;
#X obj 668 147 line;
#X floatatom 723 60 5 0 0 0 - - - 0;
#X obj 750 214 / 22;
#X floatatom 739 124 5 0 0 0 - - - 0;
#X text 720 23 gain;
#X obj 742 107 hsl 64 15 10 300 0 0 empty empty empty -2 -8 0 10 #fcfcc4
#000000 #000000 0 1;
#X text 740 90 smoothing;
#X obj 734 41 hsl 64 15 0.5 1.5 0 0 empty empty empty -2 -8 0 10 #fcfcc4
#000000 #000000 0 1;
#X obj 658 443 hsl 128 15 0 1 0 0 empty empty empty -2 -8 0 10 #fcfcfc
#000000 #000000 0 1;
#X floatatom 775 153 5 0 0 0 - - - 0;
#X obj 750 190 - 60;
#X obj 668 171 moses 60;
#X obj 693 397 tgl 15 0 empty empty empty 17 7 0 10 #fcfcfc #000000
#000000 0 1;
#X obj 666 39 *~ 1.13;
#X obj 666 60 *~ 1.13;
#X obj 672 259 * 100;
#X obj 671 283 int;
#X obj 671 306 change;
#X obj 670 330 / 100;
#X obj 721 299 hsl 128 15 0 127 0 0 empty empty env.resolution -2 -8
0 10 #fcfcc4 #000000 #000000 0 1;
#X obj 671 355 clip 0 1;
#X obj 666 123 pack 0 44;
#X obj 673 235 f;
#X msg 674 200 0;
#X text 711 394 visualize peak;
#X obj 819 103 env~ 1024;
#X obj 821 148 line;
#X floatatom 876 61 5 0 0 0 - - - 0;
#X obj 903 215 / 22;
#X floatatom 892 125 5 0 0 0 - - - 0;
#X text 873 24 gain;
#X obj 895 108 hsl 64 15 10 300 0 0 empty empty empty -2 -8 0 10 #fcfcc4
#000000 #000000 0 1;
#X text 893 91 smoothing;
#X obj 887 42 hsl 64 15 0.5 1.5 0 0 empty empty empty -2 -8 0 10 #fcfcc4
#000000 #000000 0 1;
#X obj 811 444 hsl 128 15 0 1 0 0 empty empty empty -2 -8 0 10 #fcfcfc
#000000 #000000 0 1;
#X floatatom 928 154 5 0 0 0 - - - 0;
#X obj 903 191 - 60;
#X obj 821 172 moses 60;
#X obj 846 398 tgl 15 0 empty empty empty 17 7 0 10 #fcfcfc #000000
#000000 0 1;
#X obj 819 40 *~ 1.13;
#X obj 819 61 *~ 1.13;
#X obj 825 260 * 100;
#X obj 824 284 int;
#X obj 824 307 change;
#X obj 823 331 / 100;
#X obj 874 300 hsl 128 15 0 127 0 0 empty empty env.resolution -2 -8
0 10 #fcfcc4 #000000 #000000 0 1;
#X obj 824 356 clip 0 1;
#X obj 819 124 pack 0 44;
#X obj 826 236 f;
#X msg 827 201 0;
#X text 864 395 visualize peak;
#X obj 23 418 spigot 1;
#X obj 195 418 spigot 1;
#X obj 348 419 spigot 1;
#X obj 499 418 spigot 1;
#X obj 671 418 spigot 1;
#X obj 824 419 spigot 1;
#X obj 191 468 oscformat ch2;
#X obj 344 469 oscformat ch3;
#X obj 495 468 oscformat ch4;
#X obj 667 468 oscformat ch5;
#X obj 820 469 oscformat ch6;
#X obj 35 502 * 127;
#X obj 35 523 int;
#X obj 34 546 ctlout 1;
#X obj 198 502 * 127;
#X obj 198 523 int;
#X obj 345 501 * 127;
#X obj 345 522 int;
#X obj 503 499 * 127;
#X obj 503 520 int;
#X obj 680 497 * 127;
#X obj 680 518 int;
#X obj 828 498 * 127;
#X obj 828 519 int;
#X obj 197 546 ctlout 2;
#X obj 344 545 ctlout 3;
#X obj 502 543 ctlout 4;
#X obj 679 541 ctlout 5;
#X obj 827 542 ctlout 6;
#X obj 19 468 oscformat /composition/selectedclip/video/source/linescape/linewidth
;
#X connect 1 0 35 0;
#X connect 2 0 23 0;
#X connect 3 0 26 1;
#X connect 3 0 27 1;
#X connect 4 0 6 0;
#X connect 5 0 6 0;
#X connect 7 0 17 0;
#X connect 8 0 17 1;
#X connect 9 0 36 1;
#X connect 10 0 35 1;
#X connect 11 0 13 0;
#X connect 11 0 28 0;
#X connect 11 0 39 0;
#X connect 11 0 7 0;
#X connect 13 0 14 0;
#X connect 14 0 5 0;
#X connect 15 0 8 0;
#X connect 16 0 10 0;
#X connect 17 0 36 0;
#X connect 17 0 63 0;
#X connect 17 0 90 0;
#X connect 17 0 116 0;
#X connect 17 0 142 0;
#X connect 17 0 168 0;
#X connect 19 0 3 0;
#X connect 21 0 23 1;
#X connect 21 0 22 1;
#X connect 22 0 9 0;
#X connect 23 0 37 0;
#X connect 23 1 22 0;
#X connect 25 0 171 1;
#X connect 26 0 27 0;
#X connect 27 0 1 0;
#X connect 29 0 30 0;
#X connect 30 0 31 0;
#X connect 31 0 32 0;
#X connect 32 0 34 0;
#X connect 33 0 29 1;
#X connect 33 0 32 1;
#X connect 34 0 171 0;
#X connect 34 0 182 0;
#X connect 34 0 200 0;
#X connect 35 0 2 0;
#X connect 36 0 29 0;
#X connect 37 0 36 1;
#X connect 39 0 15 0;
#X connect 40 0 62 0;
#X connect 41 0 52 0;
#X connect 42 0 54 1;
#X connect 42 0 55 1;
#X connect 43 0 63 1;
#X connect 44 0 62 1;
#X connect 46 0 44 0;
#X connect 48 0 42 0;
#X connect 50 0 52 1;
#X connect 50 0 51 1;
#X connect 51 0 43 0;
#X connect 52 0 64 0;
#X connect 52 1 51 0;
#X connect 53 0 172 1;
#X connect 54 0 55 0;
#X connect 55 0 40 0;
#X connect 56 0 57 0;
#X connect 57 0 58 0;
#X connect 58 0 59 0;
#X connect 59 0 61 0;
#X connect 60 0 56 1;
#X connect 60 0 59 1;
#X connect 61 0 172 0;
#X connect 61 0 177 0;
#X connect 61 0 185 0;
#X connect 62 0 41 0;
#X connect 63 0 56 0;
#X connect 64 0 63 1;
#X connect 66 0 26 0;
#X connect 66 1 54 0;
#X connect 66 2 81 0;
#X connect 66 3 107 0;
#X connect 66 4 133 0;
#X connect 66 5 159 0;
#X connect 67 0 89 0;
#X connect 68 0 79 0;
#X connect 69 0 81 1;
#X connect 69 0 82 1;
#X connect 70 0 90 1;
#X connect 71 0 89 1;
#X connect 73 0 71 0;
#X connect 75 0 69 0;
#X connect 77 0 79 1;
#X connect 77 0 78 1;
#X connect 78 0 70 0;
#X connect 79 0 91 0;
#X connect 79 1 78 0;
#X connect 80 0 173 1;
#X connect 81 0 82 0;
#X connect 82 0 67 0;
#X connect 83 0 84 0;
#X connect 84 0 85 0;
#X connect 85 0 86 0;
#X connect 86 0 88 0;
#X connect 87 0 83 1;
#X connect 87 0 86 1;
#X connect 88 0 173 0;
#X connect 88 0 178 0;
#X connect 88 0 187 0;
#X connect 89 0 68 0;
#X connect 90 0 83 0;
#X connect 91 0 90 1;
#X connect 93 0 115 0;
#X connect 94 0 105 0;
#X connect 95 0 107 1;
#X connect 95 0 108 1;
#X connect 96 0 116 1;
#X connect 97 0 115 1;
#X connect 99 0 97 0;
#X connect 101 0 95 0;
#X connect 103 0 105 1;
#X connect 103 0 104 1;
#X connect 104 0 96 0;
#X connect 105 0 117 0;
#X connect 105 1 104 0;
#X connect 106 0 174 1;
#X connect 107 0 108 0;
#X connect 108 0 93 0;
#X connect 109 0 110 0;
#X connect 110 0 111 0;
#X connect 111 0 112 0;
#X connect 112 0 114 0;
#X connect 113 0 109 1;
#X connect 113 0 112 1;
#X connect 114 0 174 0;
#X connect 114 0 179 0;
#X connect 114 0 189 0;
#X connect 115 0 94 0;
#X connect 116 0 109 0;
#X connect 117 0 116 1;
#X connect 119 0 141 0;
#X connect 120 0 131 0;
#X connect 121 0 133 1;
#X connect 121 0 134 1;
#X connect 122 0 142 1;
#X connect 123 0 141 1;
#X connect 125 0 123 0;
#X connect 127 0 121 0;
#X connect 129 0 131 1;
#X connect 129 0 130 1;
#X connect 130 0 122 0;
#X connect 131 0 143 0;
#X connect 131 1 130 0;
#X connect 132 0 175 1;
#X connect 133 0 134 0;
#X connect 134 0 119 0;
#X connect 135 0 136 0;
#X connect 136 0 137 0;
#X connect 137 0 138 0;
#X connect 138 0 140 0;
#X connect 139 0 135 1;
#X connect 139 0 138 1;
#X connect 140 0 175 0;
#X connect 140 0 180 0;
#X connect 140 0 191 0;
#X connect 141 0 120 0;
#X connect 142 0 135 0;
#X connect 143 0 142 1;
#X connect 145 0 167 0;
#X connect 146 0 157 0;
#X connect 147 0 159 1;
#X connect 147 0 160 1;
#X connect 148 0 168 1;
#X connect 149 0 167 1;
#X connect 151 0 149 0;
#X connect 153 0 147 0;
#X connect 155 0 157 1;
#X connect 155 0 156 1;
#X connect 156 0 148 0;
#X connect 157 0 169 0;
#X connect 157 1 156 0;
#X connect 158 0 176 1;
#X connect 159 0 160 0;
#X connect 160 0 145 0;
#X connect 161 0 162 0;
#X connect 162 0 163 0;
#X connect 163 0 164 0;
#X connect 164 0 166 0;
#X connect 165 0 161 1;
#X connect 165 0 164 1;
#X connect 166 0 176 0;
#X connect 166 0 181 0;
#X connect 166 0 193 0;
#X connect 167 0 146 0;
#X connect 168 0 161 0;
#X connect 169 0 168 1;
#X connect 171 0 20 0;
#X connect 172 0 49 0;
#X connect 173 0 76 0;
#X connect 174 0 102 0;
#X connect 175 0 128 0;
#X connect 176 0 154 0;
#X connect 177 0 6 0;
#X connect 178 0 6 0;
#X connect 179 0 6 0;
#X connect 180 0 6 0;
#X connect 181 0 6 0;
#X connect 182 0 183 0;
#X connect 183 0 184 0;
#X connect 185 0 186 0;
#X connect 186 0 195 0;
#X connect 187 0 188 0;
#X connect 188 0 196 0;
#X connect 189 0 190 0;
#X connect 190 0 197 0;
#X connect 191 0 192 0;
#X connect 192 0 198 0;
#X connect 193 0 194 0;
#X connect 194 0 199 0;
#X connect 200 0 6 0;
