#N canvas 706 115 1021 882 12;
#X obj 131 190 inlet;
#X obj 11 311 inlet;
#X obj 108 373 oscformat;
#X msg 339 181 set /composition/groups/1/dashboard/link\$1;
#X msg 351 214 set /composition/groups/2/dashboard/link\$1;
#X msg 363 248 set /composition/groups/3/dashboard/link\$1;
#X msg 375 281 set /composition/groups/4/dashboard/link\$1;
#X msg 387 314 set /composition/groups/5/dashboard/link\$1;
#X msg 399 348 set /composition/groups/6/dashboard/link\$1;
#X msg 410 379 set /composition/groups/7/dashboard/link\$1;
#X msg 428 411 set /composition/groups/8/dashboard/link\$1;
#X obj 127 402 oscformat;
#X obj 143 433 oscformat;
#X obj 159 462 oscformat;
#X obj 176 491 oscformat;
#X obj 195 520 oscformat;
#X obj 211 551 oscformat;
#X obj 227 580 oscformat;
#X obj 60 714 outlet;
#X obj 71 744 outlet;
#X obj 126 713 outlet;
#X obj 137 743 outlet;
#X obj 195 714 outlet;
#X obj 206 744 outlet;
#X obj 263 714 outlet;
#X obj 274 744 outlet;
#X connect 0 0 3 0;
#X connect 0 0 4 0;
#X connect 0 0 5 0;
#X connect 0 0 6 0;
#X connect 0 0 7 0;
#X connect 0 0 8 0;
#X connect 0 0 9 0;
#X connect 0 0 10 0;
#X connect 1 0 2 0;
#X connect 1 0 12 0;
#X connect 1 0 13 0;
#X connect 1 0 14 0;
#X connect 1 0 15 0;
#X connect 1 0 16 0;
#X connect 1 0 17 0;
#X connect 2 0 18 0;
#X connect 3 0 2 0;
#X connect 4 0 11 0;
#X connect 5 0 12 0;
#X connect 6 0 13 0;
#X connect 7 0 14 0;
#X connect 8 0 15 0;
#X connect 9 0 16 0;
#X connect 10 0 17 0;
#X connect 11 0 19 0;
#X connect 12 0 20 0;
#X connect 13 0 21 0;
#X connect 14 0 22 0;
#X connect 15 0 23 0;
#X connect 16 0 24 0;
#X connect 17 0 25 0;
